<svg width="16" height="16" viewBox="0 0 16 16" fill="none" xmlns="http://www.w3.org/2000/svg">
<g clip-path="url(#clip0)">
<path d="M1.46137 7.56999C1.39777 10.8152 3.50583 12.5498 4.56781 13.0114L4.8249 15.7019H5.16126L7.12007 13.6046C7.74663 13.5519 9.58145 13.3593 11.9083 13.0114C14.8168 12.5765 14.9553 8.18327 14.7772 5.09667C14.6348 2.62738 12.8052 1.38968 11.9083 1.0795C10.3914 0.908119 6.97762 0.632634 5.45805 0.901723C3.5586 1.23808 1.54087 3.51347 1.46137 7.56999Z" fill="#8E24AA"/>
<path d="M15.4367 9.26104C15.9141 5.24304 15.2074 2.70637 13.9327 1.55904L13.9334 1.55837C11.8761 -0.40096 4.92805 -0.69096 2.46672 1.64637C1.36139 2.78971 0.972053 4.46771 0.929386 6.54504C0.88672 8.62304 0.836053 12.5157 4.46339 13.5717H4.46672L4.46339 15.1844C4.46339 15.1844 4.43872 15.8377 4.85605 15.969C5.33339 16.1237 5.54939 15.8204 7.03405 14.047C9.51672 14.2624 11.4234 13.769 11.6401 13.697C12.1414 13.529 14.9781 13.1537 15.4367 9.26104ZM7.27872 12.9124C7.27872 12.9124 5.70739 14.8717 5.21872 15.3804C5.05872 15.5457 4.88339 15.5304 4.88605 15.2024C4.88605 14.987 4.89805 12.525 4.89805 12.525C1.82272 11.6437 2.00405 8.32904 2.03739 6.59504C2.07072 4.86037 2.38805 3.43971 3.32405 2.48304C5.48339 0.458373 11.5747 0.91104 13.1267 2.36971C15.0241 4.05171 14.3487 8.80371 14.3527 8.96571C13.9627 12.215 11.6641 12.421 11.2414 12.5617C11.0607 12.6217 9.38405 13.053 7.27872 12.9124Z" fill="white"/>
<path d="M8.14758 2.86328C7.89091 2.86328 7.89091 3.26328 8.14758 3.26661C10.1389 3.28195 11.7789 4.66995 11.7969 7.21595C11.7969 7.48461 12.1902 7.48128 12.1869 7.21262H12.1862C12.1649 4.46928 10.3742 2.87861 8.14758 2.86328Z" fill="white"/>
<path d="M10.767 6.79438C10.761 7.05971 11.1536 7.07238 11.157 6.80371C11.1896 5.29105 10.257 4.04505 8.5043 3.91371C8.24763 3.89505 8.22097 4.29838 8.47697 4.31705C9.99698 4.43238 10.7976 5.46971 10.767 6.79438Z" fill="white"/>
<path d="M10.3478 8.51444C10.0185 8.32378 9.68312 8.44244 9.54446 8.62978L9.25446 9.00511C9.10713 9.19578 8.83179 9.17044 8.83179 9.17044C6.82246 8.63911 6.28513 6.53644 6.28513 6.53644C6.28513 6.53644 6.26046 6.25178 6.44446 6.09911L6.80713 5.79911C6.98846 5.65511 7.10313 5.30844 6.91846 4.96778C6.42513 4.07644 6.0938 3.76911 5.92513 3.53311C5.7478 3.31111 5.48113 3.26111 5.2038 3.41111H5.1978C4.62113 3.74844 3.9898 4.37977 4.1918 5.02978C4.53647 5.71511 5.1698 7.89978 7.18846 9.55044C8.13713 10.3311 9.63846 11.1311 10.2758 11.3158L10.2818 11.3251C10.9098 11.5344 11.5205 10.8784 11.8465 10.2844V10.2798C11.9911 9.99244 11.9431 9.72044 11.7318 9.54244C11.3571 9.17711 10.7918 8.77378 10.3478 8.51444Z" fill="white"/>
<path d="M8.77891 5.40278C9.41958 5.44012 9.73025 5.77479 9.76359 6.46212C9.77559 6.73079 10.1656 6.71212 10.1536 6.44346C10.1109 5.54612 9.64292 5.04612 8.80024 4.99945C8.54358 4.98412 8.51958 5.38745 8.77891 5.40278Z" fill="white"/>
</g>
<defs>
<clipPath id="clip0">
<rect width="16" height="16" fill="white"/>
</clipPath>
</defs>
</svg>
