<svg width="120" height="120" viewBox="0 0 120 120" fill="none" xmlns="http://www.w3.org/2000/svg">
<path fill-rule="evenodd" clip-rule="evenodd" d="M4.5 4.5V112.318L39.7877 77.0303C41.8379 74.9801 45.1621 74.9801 47.2123 77.0303L57.9697 87.7877C58.2626 88.0806 58.7374 88.0806 59.0303 87.7877L83.2877 63.5303C85.3379 61.4801 88.6621 61.4801 90.7123 63.5303L115.5 88.318V4.5H4.5ZM115.5 115.5H7.68198L42.9697 80.2123C43.2626 79.9194 43.7374 79.9194 44.0303 80.2123L54.7877 90.9697C56.838 93.0199 60.1621 93.0199 62.2123 90.9697L86.4697 66.7123C86.7626 66.4194 87.2374 66.4194 87.5303 66.7123L115.409 94.591L115.5 94.5V115.5ZM3 0C1.34315 0 0 1.34314 0 3V117C0 118.657 1.34314 120 3 120H117C118.657 120 120 118.657 120 117V3C120 1.34315 118.657 0 117 0H3ZM40.5 40.5C40.5 42.9853 38.4853 45 36 45C33.5147 45 31.5 42.9853 31.5 40.5C31.5 38.0147 33.5147 36 36 36C38.4853 36 40.5 38.0147 40.5 40.5ZM45 40.5C45 45.4706 40.9706 49.5 36 49.5C31.0294 49.5 27 45.4706 27 40.5C27 35.5294 31.0294 31.5 36 31.5C40.9706 31.5 45 35.5294 45 40.5Z" fill="#E0E0E0"/>
</svg>
