<svg width="312" height="240" viewBox="0 0 312 240" fill="none" xmlns="http://www.w3.org/2000/svg">
<rect width="312" height="240" fill="#F2F2F2"/>
<path fill-rule="evenodd" clip-rule="evenodd" d="M79.5 133.5V163.833H232.5V133.5H79.5ZM78 130C76.8954 130 76 130.895 76 132V165.333C76 166.438 76.8954 167.333 78 167.333H234C235.105 167.333 236 166.438 236 165.333V132C236 130.895 235.105 130 234 130H78Z" fill="#E0E0E0"/>
<path fill-rule="evenodd" clip-rule="evenodd" d="M92.9167 68C92.9167 65.9289 94.5956 64.25 96.6667 64.25H215.333C217.404 64.25 219.083 65.9289 219.083 68V117.5H215.583V68C215.583 67.8619 215.471 67.75 215.333 67.75H96.6667C96.5286 67.75 96.4167 67.8619 96.4167 68V117.5H92.9167V68Z" fill="#E0E0E0"/>
<path fill-rule="evenodd" clip-rule="evenodd" d="M110.167 102.834V113.168H133.833V102.834H110.167ZM108.667 99.3344C107.562 99.3344 106.667 100.23 106.667 101.334V114.668C106.667 115.772 107.562 116.668 108.667 116.668H135.333C136.438 116.668 137.333 115.772 137.333 114.668V101.334C137.333 100.23 136.438 99.3344 135.333 99.3344H108.667Z" fill="#E0E0E0"/>
<path fill-rule="evenodd" clip-rule="evenodd" d="M174.167 102.834V113.168H197.833V102.834H174.167ZM172.667 99.3344C171.562 99.3344 170.667 100.23 170.667 101.334V114.668C170.667 115.772 171.562 116.668 172.667 116.668H199.333C200.438 116.668 201.333 115.772 201.333 114.668V101.334C201.333 100.23 200.438 99.3344 199.333 99.3344H172.667Z" fill="#E0E0E0"/>
<path fill-rule="evenodd" clip-rule="evenodd" d="M92.8333 168.167V170.5H107.167V168.167H92.8333ZM91.3333 164.667C90.2288 164.667 89.3333 165.562 89.3333 166.667V172C89.3333 173.105 90.2288 174 91.3333 174H108.667C109.771 174 110.667 173.105 110.667 172V166.667C110.667 165.562 109.771 164.667 108.667 164.667H91.3333Z" fill="#E0E0E0"/>
<path fill-rule="evenodd" clip-rule="evenodd" d="M87.5833 127.333C87.5833 119.739 93.7394 113.583 101.333 113.583H210.667C218.261 113.583 224.417 119.739 224.417 127.333V133.083H87.5833V127.333ZM101.333 117.083C95.6724 117.083 91.0833 121.672 91.0833 127.333V129.583H220.917V127.333C220.917 121.672 216.328 117.083 210.667 117.083H101.333Z" fill="#E0E0E0"/>
<path fill-rule="evenodd" clip-rule="evenodd" d="M204.833 168.167V170.5H219.167V168.167H204.833ZM203.333 164.667C202.229 164.667 201.333 165.562 201.333 166.667V172C201.333 173.105 202.229 174 203.333 174H220.667C221.771 174 222.667 173.105 222.667 172V166.667C222.667 165.562 221.771 164.667 220.667 164.667H203.333Z" fill="#E0E0E0"/>
</svg>
