<svg width="40" height="40" viewBox="0 0 40 40" fill="none" xmlns="http://www.w3.org/2000/svg">
<path fill-rule="evenodd" clip-rule="evenodd" d="M6.30078 8.99981C6.30078 8.06092 7.0619 7.2998 8.00078 7.2998H27.0008C27.9397 7.2998 28.7008 8.06092 28.7008 8.9998V29.5998H27.3008V14.0998H7.70078V33.9998C7.70078 34.1655 7.8351 34.2998 8.00078 34.2998H25.3758V35.6998H8.00078C7.0619 35.6998 6.30078 34.9387 6.30078 33.9998V8.99981ZM7.70078 12.6998H27.3008V8.9998C27.3008 8.83412 27.1665 8.6998 27.0008 8.6998H8.00078C7.8351 8.6998 7.70078 8.83412 7.70078 8.99981V12.6998Z" fill="#E0E0E0"/>
<path fill-rule="evenodd" clip-rule="evenodd" d="M10 24.5C10 24.1838 10.0196 23.8721 10.0576 23.5661C10.5173 19.8647 13.6741 17 17.5 17C21.6421 17 25 20.3579 25 24.5C25 24.8162 24.9804 25.1279 24.9424 25.4339C24.4827 29.1353 21.3259 32 17.5 32C13.3579 32 10 28.6421 10 24.5ZM23.5988 24.62C23.5996 24.5801 23.6 24.5401 23.6 24.5C23.6 21.1311 20.8689 18.4 17.5 18.4C14.7463 18.4 12.4188 20.2246 11.6605 22.7308C12.0738 22.5789 12.5211 22.4589 12.9935 22.3905C14.5261 22.1688 16.2996 22.4964 17.9651 23.9768C19.2996 25.1631 20.6511 25.391 21.806 25.2239C22.48 25.1263 23.0946 24.8921 23.5988 24.62ZM11.4012 24.38C11.9054 24.1079 12.5199 23.8737 13.194 23.7761C14.3489 23.609 15.7004 23.8369 17.0349 25.0232C18.7004 26.5036 20.4739 26.8312 22.0065 26.6095C22.4789 26.5411 22.9262 26.4211 23.3395 26.2692C22.5812 28.7754 20.2537 30.6 17.5 30.6C14.1311 30.6 11.4 27.8689 11.4 24.5C11.4 24.4599 11.4004 24.4199 11.4012 24.38Z" fill="#E0E0E0"/>
<path fill-rule="evenodd" clip-rule="evenodd" d="M24.3008 30.9998C24.3008 29.6476 25.3952 28.5498 26.7491 28.5498H34.7514C36.1048 28.5498 37.2008 29.647 37.2008 30.9998C37.2008 32.3529 36.1039 33.4498 34.7508 33.4498H26.7508C25.3977 33.4498 24.3008 32.3529 24.3008 30.9998ZM26.7491 29.9498C26.1701 29.9498 25.7008 30.419 25.7008 30.9998C25.7008 31.5797 26.1709 32.0498 26.7508 32.0498H34.7508C35.3307 32.0498 35.8008 31.5797 35.8008 30.9998C35.8008 30.4196 35.331 29.9498 34.7514 29.9498H26.7491Z" fill="#E0E0E0"/>
<path fill-rule="evenodd" clip-rule="evenodd" d="M24.3008 34.9998C24.3008 33.6476 25.3952 32.5498 26.7491 32.5498H34.7514C36.1048 32.5498 37.2008 33.647 37.2008 34.9998C37.2008 36.3529 36.1039 37.4498 34.7508 37.4498H26.7508C25.3977 37.4498 24.3008 36.3529 24.3008 34.9998ZM26.7491 33.9498C26.1701 33.9498 25.7008 34.419 25.7008 34.9998C25.7008 35.5797 26.1709 36.0498 26.7508 36.0498H34.7508C35.3307 36.0498 35.8008 35.5797 35.8008 34.9998C35.8008 34.4196 35.331 33.9498 34.7514 33.9498H26.7491Z" fill="#E0E0E0"/>
<path fill-rule="evenodd" clip-rule="evenodd" d="M3.30078 5.99981C3.30078 5.06092 4.0619 4.2998 5.00078 4.2998H24.0008C24.9397 4.2998 25.7008 5.06092 25.7008 5.9998V26.5998H24.3008V11.0998H4.70078V30.9998C4.70078 31.1655 4.8351 31.2998 5.00078 31.2998H22.3758V32.6998H5.00078C4.0619 32.6998 3.30078 31.9387 3.30078 30.9998V5.99981ZM4.70078 9.6998H24.3008V5.9998C24.3008 5.83412 24.1665 5.6998 24.0008 5.6998H5.00078C4.8351 5.6998 4.70078 5.83412 4.70078 5.99981V9.6998Z" fill="#4F4F4F"/>
<path fill-rule="evenodd" clip-rule="evenodd" d="M7 21.5C7 21.1838 7.01957 20.8721 7.05758 20.5661C7.51731 16.8647 10.6741 14 14.5 14C18.6421 14 22 17.3579 22 21.5C22 21.8162 21.9804 22.1279 21.9424 22.4339C21.4827 26.1353 18.3259 29 14.5 29C10.3579 29 7 25.6421 7 21.5ZM20.5988 21.62C20.5996 21.5801 20.6 21.5401 20.6 21.5C20.6 18.1311 17.8689 15.4 14.5 15.4C11.7463 15.4 9.41879 17.2246 8.66051 19.7308C9.07384 19.5789 9.52113 19.4589 9.9935 19.3905C11.5261 19.1688 13.2996 19.4964 14.9651 20.9768C16.2996 22.1631 17.6511 22.391 18.806 22.2239C19.48 22.1263 20.0946 21.8921 20.5988 21.62ZM8.40116 21.38C8.90537 21.1079 9.51995 20.8737 10.194 20.7761C11.3489 20.609 12.7004 20.8369 14.0349 22.0232C15.7004 23.5036 17.4739 23.8312 19.0065 23.6095C19.4789 23.5411 19.9262 23.4211 20.3395 23.2692C19.5812 25.7754 17.2537 27.6 14.5 27.6C11.1311 27.6 8.4 24.8689 8.4 21.5C8.4 21.4599 8.40039 21.4199 8.40116 21.38Z" fill="#4F4F4F"/>
<path fill-rule="evenodd" clip-rule="evenodd" d="M21.3008 27.9998C21.3008 26.6476 22.3952 25.5498 23.7491 25.5498H31.7514C33.1048 25.5498 34.2008 26.647 34.2008 27.9998C34.2008 29.3529 33.1039 30.4498 31.7508 30.4498H23.7508C22.3977 30.4498 21.3008 29.3529 21.3008 27.9998ZM23.7491 26.9498C23.1701 26.9498 22.7008 27.419 22.7008 27.9998C22.7008 28.5797 23.1709 29.0498 23.7508 29.0498H31.7508C32.3307 29.0498 32.8008 28.5797 32.8008 27.9998C32.8008 27.4196 32.331 26.9498 31.7514 26.9498H23.7491Z" fill="#4F4F4F"/>
<path fill-rule="evenodd" clip-rule="evenodd" d="M21.3008 31.9998C21.3008 30.6476 22.3952 29.5498 23.7491 29.5498H31.7514C33.1048 29.5498 34.2008 30.647 34.2008 31.9998C34.2008 33.3529 33.1039 34.4498 31.7508 34.4498H23.7508C22.3977 34.4498 21.3008 33.3529 21.3008 31.9998ZM23.7491 30.9498C23.1701 30.9498 22.7008 31.419 22.7008 31.9998C22.7008 32.5797 23.1709 33.0498 23.7508 33.0498H31.7508C32.3307 33.0498 32.8008 32.5797 32.8008 31.9998C32.8008 31.4196 32.331 30.9498 31.7514 30.9498H23.7491Z" fill="#4F4F4F"/>
</svg>
