<svg width="40" height="40" viewBox="0 0 40 40" fill="none" xmlns="http://www.w3.org/2000/svg">
<rect width="40" height="40" fill="white"/>
<path fill-rule="evenodd" clip-rule="evenodd" d="M17.9824 7.29199V37.4H16.5824V10.08C14.9622 11.6485 12.9 14.6586 12.9 18.7647V28.2294H15.5882V29.6294H11.5V18.7647C11.5 13.0497 15.0608 9.2397 16.8941 8.01752L17.9824 7.29199Z" fill="#E0E0E0"/>
<path fill-rule="evenodd" clip-rule="evenodd" d="M24.6997 17.9173V8.59961H26.0997V17.9173C26.0997 18.4097 26.2465 19.0337 26.5348 19.6334C26.8229 20.2326 27.2258 20.7529 27.6898 21.0799L26.8832 22.2242C26.176 21.7257 25.6355 20.9941 25.273 20.24C24.9107 19.4864 24.6997 18.6558 24.6997 17.9173ZM30.335 8.59961V19.6114H28.935V8.59961H30.335ZM34.5703 8.59961V17.9173C34.5703 19.3469 34.0907 20.5927 33.2006 21.4828C32.4591 22.2243 31.4708 22.6809 30.335 22.8128V37.3996H28.935V21.4526H29.635C30.7465 21.4526 31.6184 21.0851 32.2106 20.4929C32.8028 19.9006 33.1703 19.0288 33.1703 17.9173V8.59961H34.5703Z" fill="#E0E0E0"/>
<path fill-rule="evenodd" clip-rule="evenodd" d="M14.6768 3.33301V36.6663H13.1268V6.41966C11.3331 8.15626 9.04998 11.4887 9.04998 16.0347V26.5133H12.0262V28.0633H7.5V16.0347C7.5 9.70753 11.4422 5.48937 13.4719 4.13626L14.6768 3.33301Z" fill="#4F4F4F"/>
<path fill-rule="evenodd" clip-rule="evenodd" d="M22.1138 15.0971V4.78125H23.6637V15.0971C23.6637 15.6423 23.8262 16.3331 24.1454 16.9971C24.4644 17.6605 24.9105 18.2365 25.4242 18.5985L24.5312 19.8654C23.7482 19.3135 23.1499 18.5035 22.7485 17.6686C22.3474 16.8344 22.1138 15.9147 22.1138 15.0971ZM28.3528 4.78125V16.9727H26.8028V4.78125H28.3528ZM33.0418 4.78125V15.0971C33.0418 16.6799 32.5108 18.0591 31.5253 19.0446C30.7044 19.8655 29.6102 20.3711 28.3528 20.517V36.6665H26.8028V19.0111H27.5778C28.8083 19.0111 29.7736 18.6043 30.4293 17.9486C31.085 17.2929 31.4918 16.3277 31.4918 15.0971V4.78125H33.0418Z" fill="#4F4F4F"/>
</svg>
