<svg width="40" height="40" viewBox="0 0 40 40" fill="none" xmlns="http://www.w3.org/2000/svg">
<path d="M22.4546 36.0634H7.90918V14.2452H22.4546M22.4546 36.0634H37.0001V14.2452H22.4546M22.4546 36.0634V14.2452M22.4546 14.2452C27.3031 0.184749 37.0001 9.88151 31.1819 14.2451M22.4546 14.2452C17.6061 0.184749 7.90918 9.8816 13.7274 14.2452" stroke="#4F4F4F" stroke-width="1.6"/>
<path d="M19.5455 33.1542H5V11.336H19.5455M19.5455 33.1542H34.0909V11.336H19.5455M19.5455 33.1542V11.336M19.5455 11.336C24.3939 -2.72443 34.0909 6.97233 28.2727 11.3359M19.5455 11.336C14.697 -2.72443 5 6.97242 10.8182 11.336" stroke="white" stroke-width="1.6"/>
</svg>
