<svg width="40" height="40" viewBox="0 0 40 40" fill="none" xmlns="http://www.w3.org/2000/svg">
<path d="M9 32.5H12V22.5H9V19C9 12.9249 13.9249 8 20 8H24C30.0751 8 35 12.9249 35 19V22.5H31.5V32.5C31.5 34 30 35.5 28.5 35.5H24V33.5H20V37.5H28.5C31 37.5 33.5 35 33.5 32.5H35C36.5 32.5 38 31 38 29.5V19C38 11.268 31.732 5 24 5H20C12.268 5 6 11.268 6 19V29.5C6 31.1 7.5 32.5 9 32.5Z" stroke="#4F4F4F" stroke-width="1.4"/>
<path d="M7 30.5H10V20.5H7V17C7 10.9249 11.9249 6 18 6H22C28.0751 6 33 10.9249 33 17V20.5H29.5V30.5C29.5 32 28 33.5 26.5 33.5H22V31.5H18V35.5H26.5C29 35.5 31.5 33 31.5 30.5H33C34.5 30.5 36 29 36 27.5V17C36 9.26801 29.732 3 22 3H18C10.268 3 4 9.26801 4 17V27.5C4 29.1 5.5 30.5 7 30.5Z" stroke="white" stroke-width="1.4"/>
</svg>
