<svg width="48" height="48" viewBox="0 0 48 48" fill="none" xmlns="http://www.w3.org/2000/svg">
<path fill-rule="evenodd" clip-rule="evenodd" d="M12.9175 6.91797H27.7337C34.0845 6.91797 39.2328 12.0663 39.2328 18.4171C39.2328 24.7679 34.0845 29.9162 27.7337 29.9162H14.9077V44.4007H12.9175V6.91797ZM14.9077 27.926H27.7337C32.9853 27.926 37.2426 23.6687 37.2426 18.4171C37.2426 13.1655 32.9853 8.9082 27.7337 8.9082H14.9077V27.926Z" fill="#E0E0E0"/>
<path fill-rule="evenodd" clip-rule="evenodd" d="M9.6001 3.59961H24.4163C30.7671 3.59961 35.9154 8.74795 35.9154 15.0987C35.9154 21.4495 30.7671 26.5979 24.4163 26.5979H11.5903V41.0824H9.6001V3.59961ZM11.5903 24.6076H24.4163C29.6679 24.6076 33.9252 20.3504 33.9252 15.0987C33.9252 9.84712 29.6679 5.58984 24.4163 5.58984H11.5903V24.6076Z" fill="#4F4F4F"/>
</svg>
