<svg width="40" height="40" viewBox="0 0 40 40" fill="none" xmlns="http://www.w3.org/2000/svg">
<path fill-rule="evenodd" clip-rule="evenodd" d="M10.7646 5.76465H23.1115C28.4038 5.76465 32.6941 10.0549 32.6941 15.3473C32.6941 20.6396 28.4038 24.9299 23.1115 24.9299H12.4232V37.0003H10.7646V5.76465ZM12.4232 23.2713H23.1115C27.4878 23.2713 31.0355 19.7236 31.0355 15.3473C31.0355 10.9709 27.4878 7.42318 23.1115 7.42318H12.4232V23.2713Z" fill="#4F4F4F"/>
<path fill-rule="evenodd" clip-rule="evenodd" d="M8 3H20.3468C25.6391 3 29.9294 7.29028 29.9294 12.5826C29.9294 17.8749 25.6391 22.1652 20.3468 22.1652H9.65853V34.2356H8V3ZM9.65853 20.5067H20.3468C24.7232 20.5067 28.2709 16.959 28.2709 12.5826C28.2709 8.20626 24.7232 4.65853 20.3468 4.65853H9.65853V20.5067Z" fill="white"/>
</svg>
