<svg width="48" height="48" viewBox="0 0 48 48" fill="none" xmlns="http://www.w3.org/2000/svg">
<g clip-path="url(#clip0)">
<path d="M33.4963 23.9376L35.8713 21.5626C37.907 23.5983 41.9784 22.9197 44.3534 20.5448C45.0319 19.8662 46.3891 17.9662 46.3891 15.7948L45.3712 14.777L42.657 17.4912L39.2641 18.1698L35.8713 14.777L36.5499 11.3842L39.2641 8.6699L38.2463 7.65205C36.0749 7.65205 34.1749 9.00918 33.4963 9.68774C31.1214 12.0627 30.4428 16.1341 32.4785 18.1698L30.1035 20.5448" stroke="#E0E0E0" stroke-width="1.3"/>
<path d="M33.5064 23.926L21.9606 35.4724C23.9963 37.5081 23.3177 41.5795 20.9427 43.9544C20.2642 44.633 18.3642 45.9901 16.1928 45.9901L15.1749 44.9723L17.8892 42.258L18.5677 38.8652L15.1749 35.4724L11.7821 36.151L9.06785 38.8652L8.05 37.8474C8.05 35.676 9.40713 33.776 10.0857 33.0974C12.4607 30.7224 16.5321 30.0439 18.5677 32.0796L30.1057 20.5417" stroke="#E0E0E0" stroke-width="1.3"/>
<path d="M31.5769 22.0177L33.9519 19.6427C35.9876 21.6784 40.059 20.9998 42.4339 18.6248C43.1125 17.9463 44.4696 16.0463 44.4696 13.8749L43.4518 12.8571L40.7375 15.5713L37.3447 16.2499L33.9519 12.8571L34.6304 9.46423L37.3447 6.74997L36.3269 5.73213C34.1554 5.73213 32.2555 7.08926 31.5769 7.76782C29.2019 10.1428 28.5234 14.2142 30.5591 16.2499L28.1841 18.6248" stroke="#4F4F4F" stroke-width="1.3"/>
<path d="M32.0581 21.5346L20.0411 33.5525C22.0768 35.5882 21.3983 39.6595 19.0233 42.0345C18.3447 42.7131 16.4447 44.0702 14.2733 44.0702L13.2555 43.0524L15.9697 40.3381L16.6483 36.9453L13.2555 33.5525L9.86267 34.231L7.14841 36.9453L6.13057 35.9274C6.13057 33.756 7.48769 31.8561 8.16626 31.1775C10.5412 28.8025 14.6126 28.124 16.6483 30.1596L28.2153 18.5931" stroke="#4F4F4F" stroke-width="1.3"/>
</g>
<defs>
<clipPath id="clip0">
<rect width="44" height="44" fill="white" transform="translate(2 2)"/>
</clipPath>
</defs>
</svg>
