<svg width="48" height="48" viewBox="0 0 48 48" fill="none" xmlns="http://www.w3.org/2000/svg">
<path d="M25.8003 5.7998V45.7998M25.8003 5.7998C25.8003 5.7998 21.0979 8.89447 17.8003 10.2998C14.7891 11.5831 9.80029 12.7998 9.80029 12.7998V24.7998C9.80029 32.2998 14.8003 40.2998 25.8003 45.7998M25.8003 5.7998C25.8003 5.7998 30.5027 8.89447 33.8003 10.2998C36.8114 11.5831 41.8003 12.7998 41.8003 12.7998V24.7998C41.8003 32.2998 36.8003 40.2998 25.8003 45.7998" stroke="#E0E0E0" stroke-width="1.4"/>
<path d="M22.2002 2.2002V42.2002M22.2002 2.2002C22.2002 2.2002 17.4978 5.29486 14.2002 6.7002C11.189 7.98347 6.2002 9.2002 6.2002 9.2002V21.2002C6.2002 28.7002 11.2002 36.7002 22.2002 42.2002M22.2002 2.2002C22.2002 2.2002 26.9026 5.29486 30.2002 6.7002C33.2113 7.98347 38.2002 9.2002 38.2002 9.2002V21.2002C38.2002 28.7002 33.2002 36.7002 22.2002 42.2002" stroke="#4F4F4F" stroke-width="1.6"/>
</svg>
