<svg width="40" height="40" viewBox="0 0 40 40" fill="none" xmlns="http://www.w3.org/2000/svg">
<path d="M21.5003 4.83301V38.1663M21.5003 4.83301C21.5003 4.83301 17.5816 7.4119 14.8337 8.58301C12.3244 9.6524 8.16699 10.6663 8.16699 10.6663V20.6663C8.16699 26.9163 12.3337 33.583 21.5003 38.1663M21.5003 4.83301C21.5003 4.83301 25.419 7.4119 28.167 8.58301C30.6763 9.6524 34.8337 10.6663 34.8337 10.6663V20.6663C34.8337 26.9163 30.667 33.583 21.5003 38.1663" stroke="#4F4F4F" stroke-width="1.4"/>
<path d="M18.5003 1.83301V35.1663M18.5003 1.83301C18.5003 1.83301 14.5816 4.4119 11.8337 5.58301C9.32437 6.6524 5.16699 7.66634 5.16699 7.66634V17.6663C5.16699 23.9163 9.33366 30.583 18.5003 35.1663M18.5003 1.83301C18.5003 1.83301 22.419 4.4119 25.167 5.58301C27.6763 6.6524 31.8337 7.66634 31.8337 7.66634V17.6663C31.8337 23.9163 27.667 30.583 18.5003 35.1663" stroke="white" stroke-width="1.6"/>
</svg>
