<svg width="40" height="40" viewBox="0 0 40 40" fill="none" xmlns="http://www.w3.org/2000/svg">
<path fill-rule="evenodd" clip-rule="evenodd" d="M21.9069 26.7411C20.8323 26.7411 19.7681 26.9528 18.7752 27.364C17.7824 27.7753 16.8802 28.3781 16.1203 29.138L14.8691 27.8868C15.7934 26.9626 16.8906 26.2295 18.0981 25.7293C19.3057 25.2291 20.5999 24.9717 21.9069 24.9717C23.214 24.9717 24.5082 25.2291 25.7158 25.7293C26.9233 26.2295 28.0205 26.9626 28.9448 27.8868L27.6936 29.138C26.9337 28.3781 26.0315 27.7753 25.0387 27.364C24.0458 26.9528 22.9816 26.7411 21.9069 26.7411Z" fill="#4F4F4F"/>
<path fill-rule="evenodd" clip-rule="evenodd" d="M21.9065 33.3759C21.7032 33.3759 21.5018 33.4159 21.314 33.4937C21.1262 33.5715 20.9555 33.6856 20.8117 33.8293L19.5605 32.5782C19.8686 32.2701 20.2344 32.0257 20.6369 31.859C21.0394 31.6923 21.4708 31.6064 21.9065 31.6064C22.3422 31.6064 22.7736 31.6923 23.1761 31.859C23.5786 32.0257 23.9443 32.2701 24.2524 32.5782L23.0013 33.8293C22.8575 33.6856 22.6868 33.5715 22.499 33.4937C22.3111 33.4159 22.1098 33.3759 21.9065 33.3759Z" fill="#4F4F4F"/>
<path fill-rule="evenodd" clip-rule="evenodd" d="M21.9072 18.9989C19.8159 18.9989 17.7451 19.4108 15.813 20.2111C13.881 21.0114 12.1254 22.1844 10.6467 23.6632L9.39551 22.412C11.0386 20.7689 12.9892 19.4656 15.1359 18.5764C17.2827 17.6872 19.5835 17.2295 21.9072 17.2295C24.2308 17.2295 26.5317 17.6872 28.6784 18.5764C30.8252 19.4656 32.7758 20.7689 34.4188 22.412L33.1677 23.6632C31.6889 22.1844 29.9334 21.0114 28.0013 20.2111C26.0692 19.4108 23.9984 18.9989 21.9072 18.9989Z" fill="#4F4F4F"/>
<path fill-rule="evenodd" clip-rule="evenodd" d="M21.7601 11.2622C18.6698 11.2079 15.5999 11.7739 12.7322 12.9269C9.86449 14.0798 7.25714 15.7961 5.06441 17.9744L3.81738 16.7192C6.17797 14.3741 8.98493 12.5263 12.0722 11.2851C15.1594 10.044 18.4643 9.4346 21.7912 9.4931C25.1181 9.55161 28.3995 10.2768 31.4412 11.6257C34.4829 12.9747 37.2231 14.92 39.4998 17.3466L38.2094 18.5573C36.0947 16.3032 33.5493 14.4962 30.7238 13.2432C27.8984 11.9902 24.8504 11.3166 21.7601 11.2622Z" fill="#4F4F4F"/>
<path fill-rule="evenodd" clip-rule="evenodd" d="M18.5896 23.4227C17.5149 23.4227 16.4507 23.6344 15.4579 24.0457C14.465 24.4569 13.5628 25.0597 12.8029 25.8196L11.5518 24.5685C12.476 23.6443 13.5732 22.9111 14.7807 22.4109C15.9883 21.9108 17.2825 21.6533 18.5896 21.6533C19.8966 21.6533 21.1908 21.9108 22.3984 22.4109C23.6059 22.9111 24.7032 23.6443 25.6274 24.5685L24.3762 25.8196C23.6163 25.0597 22.7141 24.4569 21.7213 24.0457C20.7284 23.6344 19.6642 23.4227 18.5896 23.4227Z" fill="white"/>
<path fill-rule="evenodd" clip-rule="evenodd" d="M18.5891 30.0585C18.3858 30.0585 18.1845 30.0985 17.9966 30.1763C17.8088 30.2541 17.6381 30.3682 17.4943 30.5119L16.2432 29.2608C16.5512 28.9527 16.917 28.7083 17.3195 28.5416C17.722 28.3749 18.1534 28.2891 18.5891 28.2891C19.0248 28.2891 19.4562 28.3749 19.8587 28.5416C20.2612 28.7083 20.627 28.9527 20.935 29.2608L19.6839 30.5119C19.5401 30.3682 19.3694 30.2541 19.1816 30.1763C18.9937 30.0985 18.7924 30.0585 18.5891 30.0585Z" fill="white"/>
<path fill-rule="evenodd" clip-rule="evenodd" d="M18.5888 15.6815C16.4975 15.6815 14.4267 16.0934 12.4947 16.8937C10.5626 17.694 8.80706 18.867 7.32831 20.3458L6.07715 19.0946C7.7202 17.4516 9.67079 16.1482 11.8175 15.259C13.9643 14.3698 16.2652 13.9121 18.5888 13.9121C20.9124 13.9121 23.2133 14.3698 25.3601 15.259C27.5068 16.1482 29.4574 17.4516 31.1005 19.0946L29.8493 20.3458C28.3705 18.867 26.615 17.694 24.6829 16.8937C22.7509 16.0934 20.6801 15.6815 18.5888 15.6815Z" fill="white"/>
<path fill-rule="evenodd" clip-rule="evenodd" d="M18.4427 7.94389C15.3524 7.88955 12.2825 8.45558 9.41483 9.60849C6.54711 10.7614 3.93976 12.4778 1.74703 14.6561L0.5 13.4008C2.86059 11.0557 5.66755 9.20796 8.75481 7.96678C11.8421 6.72561 15.1469 6.11624 18.4738 6.17474C21.8007 6.23325 25.0821 6.95842 28.1238 8.30737C31.1655 9.65633 33.9058 11.6016 36.1824 14.0282L34.8921 15.2389C32.7773 12.9849 30.2319 11.1779 27.4065 9.92486C24.581 8.67184 21.533 7.99823 18.4427 7.94389Z" fill="white"/>
</svg>
