<svg width="84" height="32" viewBox="0 0 84 32" fill="none" xmlns="http://www.w3.org/2000/svg">
<path fill-rule="evenodd" clip-rule="evenodd" d="M28.8465 17.7846C28.8665 18.5846 28.2465 19.1546 27.4465 19.1546H25.3565V16.4646H27.4665C28.2065 16.4646 28.8265 16.9846 28.8465 17.7846ZM80.7565 12.8446V20.8446C80.7565 20.9846 80.6365 21.0746 80.4965 21.0746H78.8165C78.6865 21.0746 78.5565 20.9746 78.5565 20.8446V12.8446H75.9265C75.7965 12.8446 75.6965 12.7146 75.6965 12.5846V11.2146C75.6965 11.0746 75.7865 10.9546 75.9265 10.9546H83.4265C83.5665 10.9546 83.6565 11.0746 83.6565 11.2146V12.5846C83.6565 12.7146 83.5565 12.8446 83.4265 12.8446H80.7565ZM38.7965 20.7446V19.4146C38.7965 19.3146 38.7265 19.1746 38.5565 19.1746H34.6365C34.3965 19.1746 33.9265 19.0046 33.9265 18.4046V16.4646H38.0965C38.2665 16.4646 38.3465 16.3146 38.3465 16.2246V14.8746C38.3465 14.7346 38.2465 14.6246 38.0765 14.6246H33.9265V13.5546C33.9265 13.0946 34.3065 12.8446 34.6365 12.8446H38.5465C38.7265 12.8446 38.8065 12.7046 38.8065 12.6046V11.2046C38.8065 11.0646 38.7065 10.9546 38.5365 10.9546L34.4465 10.9346C32.9165 10.9246 31.7165 12.2046 31.7165 13.6246V18.4246C31.7165 19.8946 32.9565 21.0846 34.3865 21.0846H38.5465C38.6965 21.0846 38.7865 20.9746 38.7965 20.8446C38.7965 20.8046 38.7965 20.7746 38.7965 20.7446ZM55.4165 15.6846V15.6146C55.7265 15.4246 55.9865 15.1846 56.1965 14.8846C56.4065 14.5846 56.5565 14.2246 56.6465 13.8146L57.3065 11.2346C57.3365 11.1246 57.2565 10.9446 57.0665 10.9446H55.4865C55.4365 10.9446 55.3765 10.9546 55.3165 10.9746C55.2565 10.9946 55.2165 11.0546 55.1965 11.1446L54.5465 13.5846C54.4665 13.8846 54.3665 14.1146 54.2365 14.2846C54.1065 14.4646 53.9665 14.5946 53.8065 14.6746C53.6565 14.7546 53.4965 14.8146 53.3365 14.8446C53.1765 14.8646 53.0265 14.8846 52.8765 14.8746H51.7465V11.1946C51.7465 11.0346 51.6165 10.9546 51.5065 10.9546H49.8165C49.6765 10.9546 49.5565 11.0546 49.5565 11.1846V20.8446C49.5565 20.9746 49.6865 21.0746 49.8165 21.0746H51.4965C51.6365 21.0746 51.7565 20.9846 51.7565 20.8446V16.5546H52.9265C53.2565 16.5546 53.5465 16.5846 53.7765 16.6446C54.0065 16.7046 54.1965 16.8346 54.3565 17.0046C54.5065 17.1846 54.6365 17.4346 54.7365 17.7646L55.6265 20.8946C55.6765 21.0246 55.7665 21.0646 55.8565 21.0646H57.5365C57.7465 21.0746 57.8065 20.8746 57.7865 20.7746L56.8865 17.4246C56.8265 17.2046 56.7665 17.0146 56.7065 16.8346C56.6365 16.6546 56.5565 16.4946 56.4565 16.3546C56.3565 16.2146 56.2165 16.0846 56.0565 15.9746C55.8665 15.8746 55.6665 15.7746 55.4165 15.6846ZM61.4965 17.1746L62.0465 15.3446L62.5965 13.2846H62.6865L63.2165 15.3446L63.7665 17.1746H61.4965ZM64.2765 18.9646L64.8365 20.8446C64.8865 21.0146 64.9765 21.0746 65.0865 21.0746H66.9165C67.0865 21.0746 67.1965 20.9346 67.1565 20.7646L64.1565 11.7446C64.0165 11.3046 63.8065 10.9546 63.2965 10.9546H61.9965C61.7465 10.9346 61.5165 11.0246 61.3465 11.2546C61.2565 11.3746 61.1765 11.5346 61.1165 11.7446L58.1265 20.7546C58.0565 20.9546 58.2265 21.0846 58.3565 21.0846H60.1165C60.1765 21.0846 60.2965 21.0946 60.3665 20.9346C60.3865 20.8946 60.3965 20.8446 60.4065 20.8046L60.9665 18.9746H64.2765V18.9646ZM73.2765 14.1646C73.2765 14.8746 72.7165 15.4946 71.9465 15.4946H69.9765V12.8446H71.8565C72.7065 12.8146 73.2765 13.4646 73.2765 14.1646ZM69.9865 20.7746V17.3946H72.3865C74.0465 17.3946 75.6065 16.0346 75.5765 14.1246C75.5765 13.6646 75.4565 13.2346 75.2965 12.8546C74.8965 11.9646 74.1665 11.3646 73.3165 11.1046C72.9665 10.9946 72.5865 10.9646 72.2065 10.9646H68.5465C68.1565 10.9646 67.8265 11.2346 67.8165 11.6546C67.8165 11.7146 67.8065 11.7746 67.8065 11.8446V20.8446C67.8065 20.9846 67.9065 21.0846 68.0565 21.0846H69.7565C69.8465 21.0846 69.9265 21.0346 69.9665 20.9546C69.9765 20.8946 69.9865 20.8446 69.9865 20.7746ZM23.8665 21.0746H27.6565C29.5365 21.1446 31.0665 19.8446 31.1265 17.8946C31.1265 17.7246 31.1365 17.5346 31.0965 17.3146C30.7665 15.7246 29.5065 14.6346 27.9065 14.6346H25.3465V12.8346H29.7065C29.8765 12.8346 29.9665 12.7246 29.9665 12.5646V11.2646C29.9665 11.0846 29.9065 10.9446 29.7065 10.9446H23.9165C23.3265 10.9446 23.1465 11.3746 23.1465 11.6546V20.3546C23.1565 20.7546 23.4665 21.0746 23.8665 21.0746ZM41.1865 11.9146L41.0565 14.1146C41.0165 14.8646 40.9665 15.5146 40.9165 16.0646C40.8365 16.9746 40.7465 19.1746 39.5565 19.1746H39.5065C39.3965 19.1746 39.2665 19.2646 39.2665 19.4146V20.7546V20.8246C39.2665 20.9746 39.3665 21.0846 39.5065 21.0846H39.6165C40.5065 21.0846 41.2865 20.9846 41.9665 19.9646C42.1765 19.6446 42.3665 19.2846 42.4965 18.8746C42.6265 18.4646 42.7365 18.0146 42.8165 17.5046C42.8965 17.0046 42.9565 16.4446 43.0065 15.8446C43.0565 15.2446 43.1065 14.5846 43.1465 13.8746L43.2065 12.8646H46.0265V20.8346C46.0265 20.9646 46.1465 21.0946 46.2865 21.0746H47.9565C48.1265 21.0746 48.2165 20.9546 48.2165 20.8146V11.6646C48.2165 11.2846 47.8965 10.9546 47.4565 10.9546H41.9165C41.4865 10.9546 41.2365 11.3246 41.2165 11.6346C41.2165 11.7146 41.1965 11.8146 41.1865 11.9146Z" fill="#005793" stroke="#E0E0E0" stroke-width="0.3051" stroke-miterlimit="10"/>
<path fill-rule="evenodd" clip-rule="evenodd" d="M11.3958 17.5745C11.2958 17.5745 11.2058 17.6545 11.2058 17.7645V19.4445L12.3358 20.8745L9.80582 18.3445C9.73582 18.2745 9.61582 18.2745 9.53582 18.3445L8.32582 19.5545L8.09582 21.3445V17.7645C8.09582 17.6645 8.00582 17.5745 7.90582 17.5745H6.10582L4.77582 18.6645L7.30582 16.1345C7.37582 16.0645 7.37582 15.9445 7.30582 15.8645L6.03582 14.5945L4.32582 14.4345H7.90582C8.00582 14.4345 8.09582 14.3545 8.09582 14.2445V12.5345L6.97582 11.1345L9.50582 13.6645C9.57582 13.7345 9.69582 13.7345 9.77582 13.6645L11.0258 12.4145L11.2058 10.6545V14.2345C11.2058 14.3345 11.2958 14.4245 11.3958 14.4245H13.1758L14.5258 13.3345L11.9958 15.8645C11.9258 15.9345 11.9258 16.0545 11.9958 16.1345L13.2358 17.3745L14.9758 17.5545H11.3958V17.5745ZM18.6058 17.1545L15.8858 14.4345L14.7958 13.3445L16.7758 14.4345C16.8758 14.4345 16.9658 14.3445 16.9658 14.2445V10.6645C16.9658 10.5645 16.8858 10.4745 16.7758 10.4745H12.9658H11.3958L13.5858 9.85445C13.6558 9.78445 13.6558 9.66445 13.5858 9.58445L11.0458 7.05445C10.9758 6.98445 10.8558 6.98445 10.7758 7.05445L8.09582 9.75445L6.93582 10.9145L6.94582 10.9045L8.08582 8.86445C8.08582 8.76445 7.99582 8.67445 7.89582 8.67445H4.32582C4.22582 8.67445 4.13582 8.75445 4.13582 8.86445V12.6945V14.2445L3.49582 12.0545C3.42582 11.9845 3.30582 11.9845 3.22582 12.0545L0.70582 14.5945C0.63582 14.6645 0.63582 14.7845 0.70582 14.8645L4.51582 18.6745L2.53582 17.5845C2.43582 17.5845 2.34582 17.6745 2.34582 17.7745V21.3545C2.34582 21.4545 2.43582 21.5445 2.53582 21.5445H6.34582H7.91582L5.72582 22.1645C5.65582 22.2345 5.65582 22.3545 5.72582 22.4345L8.25582 24.9645C8.32582 25.0345 8.44582 25.0345 8.52582 24.9645L11.2058 22.2845L12.3158 21.1745L11.2058 23.1645C11.2058 23.2645 11.2958 23.3545 11.3958 23.3545H14.9758C15.0758 23.3545 15.1658 23.2745 15.1658 23.1645V19.3345V17.7745L15.8058 19.9645C15.8758 20.0345 15.9958 20.0345 16.0758 19.9645L18.6058 17.4345C18.6758 17.3445 18.6758 17.2245 18.6058 17.1545Z" fill="#005793"/>
<path d="M11.3962 17.5741H14.9762L13.2362 17.3941L11.9962 16.1541C11.9262 16.0841 11.9262 15.9641 11.9962 15.8841L14.5262 13.3541L13.1762 14.4441H11.3962C11.2962 14.4441 11.2062 14.3541 11.2062 14.2541V10.6641L11.0262 12.4241L10.8462 12.5941L9.77617 13.6641C9.70617 13.7341 9.58617 13.7341 9.50617 13.6641L6.97617 11.1341L8.09617 12.5341V14.2441C8.09617 14.3441 8.00617 14.4341 7.90617 14.4341H4.32617L6.04617 14.5941L7.31617 15.8641C7.38617 15.9341 7.38617 16.0541 7.31617 16.1341L4.78617 18.6641L6.11617 17.5741H7.92617C8.02617 17.5741 8.11617 17.6641 8.11617 17.7641V21.3441L8.34617 19.5541L9.55617 18.3441C9.62617 18.2741 9.74617 18.2741 9.82617 18.3441L12.3562 20.8741L11.2262 19.4441V17.7641C11.2062 17.6541 11.2962 17.5741 11.3962 17.5741ZM10.9062 17.7541V19.0141L10.0162 18.1241C9.82617 17.9341 9.51617 17.9341 9.32617 18.1241L8.40617 19.0441V17.7541C8.40617 17.4841 8.18617 17.2641 7.91617 17.2641H6.58617L7.51617 16.3341C7.70617 16.1441 7.70617 15.8341 7.51617 15.6441L6.60617 14.7341H7.90617C8.17617 14.7341 8.39617 14.5141 8.39617 14.2441V12.9741L9.29617 13.8741C9.48617 14.0641 9.79617 14.0641 9.98617 13.8741L10.9062 12.9541V14.2341C10.9062 14.5041 11.1262 14.7241 11.3962 14.7241H12.7162L11.7862 15.6541C11.5962 15.8441 11.5962 16.1541 11.7862 16.3441L12.6962 17.2541H11.3962C11.1262 17.2741 10.9062 17.4841 10.9062 17.7541Z" fill="#E0E0E0"/>
<path d="M18.8162 16.9444L18.8062 16.9344L16.4963 14.6244L16.7063 14.7344H16.7863C17.0563 14.7344 17.2763 14.5144 17.2763 14.2444V10.6644C17.2763 10.3944 17.0563 10.1744 16.7863 10.1744H13.5562L13.7462 10.1244L13.7962 10.0744C13.9862 9.88441 13.9862 9.57441 13.7962 9.38441L11.2662 6.85441C11.0762 6.66441 10.7662 6.66441 10.5762 6.85441L8.27625 9.13441L8.38625 8.93441V8.86441C8.38625 8.59441 8.16625 8.37441 7.89625 8.37441H4.32625C4.05625 8.37441 3.83625 8.59441 3.83625 8.86441V12.1344L3.76625 11.8944L3.70625 11.8444C3.51625 11.6544 3.20625 11.6544 3.01625 11.8444L0.48625 14.3744C0.29625 14.5644 0.29625 14.8744 0.48625 15.0644L2.79625 17.3744L2.60625 17.2644H2.53625C2.26625 17.2644 2.04625 17.4844 2.04625 17.7544V21.3344C2.04625 21.6044 2.26625 21.8244 2.53625 21.8244H5.74625L5.56625 21.8744L5.50625 21.9244C5.31625 22.1144 5.31625 22.4244 5.50625 22.6144L8.03625 25.1444C8.22625 25.3344 8.53625 25.3344 8.72625 25.1444L10.9862 22.8844L10.8962 23.0544V23.1344C10.8962 23.4044 11.1162 23.6244 11.3862 23.6244H14.9662C15.2362 23.6244 15.4562 23.4044 15.4562 23.1344V19.8544L15.5262 20.0944L15.5862 20.1444C15.7762 20.3344 16.0862 20.3344 16.2762 20.1444L18.8062 17.6144C19.0062 17.4444 19.0062 17.1344 18.8162 16.9444ZM18.6063 17.4244L16.0762 19.9544C16.0062 20.0244 15.8862 20.0244 15.8062 19.9544L15.1662 17.7644V23.1544C15.1662 23.2544 15.0762 23.3444 14.9762 23.3444H11.3962C11.2962 23.3444 11.2062 23.2544 11.2062 23.1544L12.3162 21.1644L8.52625 24.9544C8.45625 25.0244 8.33625 25.0244 8.25625 24.9544L5.72625 22.4244C5.65625 22.3544 5.65625 22.2344 5.72625 22.1544L7.91625 21.5344H2.53625C2.43625 21.5344 2.34625 21.4444 2.34625 21.3444V17.7644C2.34625 17.6644 2.43625 17.5744 2.53625 17.5744L4.51625 18.6644L0.70625 14.8544C0.63625 14.7844 0.63625 14.6644 0.70625 14.5844L3.23625 12.0544C3.30625 11.9844 3.42625 11.9844 3.50625 12.0544L4.13625 14.2444V8.86441C4.13625 8.76441 4.22625 8.67441 4.32625 8.67441H7.90625C8.00625 8.67441 8.09625 8.75441 8.09625 8.86441L6.94625 10.9144L8.09625 9.75441L10.7862 7.06441C10.8562 6.99441 10.9762 6.99441 11.0562 7.06441L13.5862 9.59441C13.6562 9.66441 13.6562 9.78441 13.5862 9.86441L11.3962 10.4844H16.7863C16.8863 10.4844 16.9762 10.5644 16.9762 10.6744V14.2544C16.9762 14.3544 16.8963 14.4444 16.7863 14.4444L14.8062 13.3544L18.6163 17.1644C18.6763 17.2244 18.6763 17.3444 18.6063 17.4244Z" fill="#E0E0E0"/>
</svg>
