<svg width="32" height="32" viewBox="0 0 32 32" fill="none" xmlns="http://www.w3.org/2000/svg">
<g clip-path="url(#clip0)">
<path d="M20.1849 9.07227H11.8135V24.1169H20.1849V9.07227Z" fill="#FF5F00"/>
<path d="M12.3454 16.596C12.3438 15.1469 12.672 13.7164 13.3051 12.4129C13.9382 11.1094 14.8596 9.96707 15.9995 9.07236C14.5881 7.96314 12.8931 7.27339 11.1082 7.08192C9.32337 6.89046 7.52063 7.20502 5.90606 7.98964C4.2915 8.77426 2.93025 9.9973 1.9779 11.519C1.02555 13.0406 0.520508 14.7995 0.520508 16.5947C0.520508 18.3898 1.02555 20.1487 1.9779 21.6704C2.93025 23.192 4.2915 24.4151 5.90606 25.1997C7.52063 25.9843 9.32337 26.2989 11.1082 26.1074C12.8931 25.9159 14.5881 25.2262 15.9995 24.117C14.86 23.2225 13.9388 22.0806 13.3057 20.7776C12.6726 19.4746 12.3442 18.0446 12.3454 16.596V16.596Z" fill="#EB001B"/>
<path d="M31.4804 16.5961C31.4804 18.3914 30.9752 20.1504 30.0227 21.6721C29.0702 23.1938 27.7087 24.4168 26.094 25.2014C24.4792 25.9859 22.6763 26.3002 20.8913 26.1085C19.1063 25.9167 17.4113 25.2267 16 24.1171C17.1391 23.2219 18.06 22.0796 18.6933 20.7765C19.3265 19.4735 19.6556 18.0436 19.6556 16.5948C19.6556 15.146 19.3265 13.7161 18.6933 12.413C18.06 11.11 17.1391 9.96772 16 9.07249C17.4113 7.96293 19.1063 7.27283 20.8913 7.0811C22.6763 6.88936 24.4792 7.20371 26.094 7.98822C27.7087 8.77274 29.0702 9.99575 30.0227 11.5175C30.9752 13.0392 31.4804 14.7982 31.4804 16.5935V16.5961Z" fill="#F79E1B"/>
<path d="M15.9995 8.81956C14.5837 7.74307 12.9 7.07297 11.1296 6.88306C9.30739 6.6876 7.46696 7.00873 5.81865 7.80976C4.17033 8.61078 2.78063 9.85939 1.80837 11.4129C0.836103 12.9663 0.320508 14.762 0.320508 16.5947C0.320508 18.4273 0.836103 20.223 1.80837 21.7765C2.78063 23.3299 4.17033 24.5785 5.81865 25.3796C7.46696 26.1806 9.30739 26.5017 11.1296 26.3063C12.9 26.1163 14.5837 25.4462 15.9995 24.3698C17.4152 25.4466 19.0995 26.1172 20.87 26.3073C22.6922 26.5031 24.5329 26.1822 26.1814 25.3812C27.8299 24.5803 29.2198 23.3318 30.1922 21.7782C31.1647 20.2247 31.6804 18.4289 31.6804 16.5961V16.5935C31.6804 14.7607 31.1647 12.9649 30.1922 11.4114C29.2198 9.85783 27.8299 8.60924 26.1814 7.80833C24.5329 7.00742 22.6922 6.68649 20.87 6.88224C19.0995 7.07242 17.4153 7.74272 15.9995 8.81956Z" stroke="#E0E0E0" stroke-width="0.4"/>
</g>
<defs>
<clipPath id="clip0">
<rect width="32" height="21" fill="white" transform="translate(0 6)"/>
</clipPath>
</defs>
</svg>
