<svg width="44" height="32" viewBox="0 0 44 32" fill="none" xmlns="http://www.w3.org/2000/svg">
<path d="M38.9891 17.7964H38.9879H38.9833H38.9787H38.974H38.9693H38.9647H38.9599H38.9552H38.9505H38.9457H38.9409H38.9361H38.9313H38.9264H38.9216H38.9167H38.9118H38.9069H38.902H38.897H38.892H38.8871H38.8821H38.877H38.872H38.8669H38.8619H38.8568H38.8517H38.8465H38.8414H38.8362H38.8311H38.8259H38.8207H38.8154H38.8102H38.8049H38.7997H38.7944H38.7891H38.7837H38.7784H38.773H38.7677H38.7623H38.7569H38.7515H38.746H38.7406H38.7351H38.7297H38.7242H38.7187H38.7131H38.7076H38.702H38.6965H38.6909H38.6853H38.6797H38.6741H38.6684H38.6628H38.6571H38.6515H38.6458H38.6401H38.6343H38.6286H38.6229H38.6171H38.6113H38.6056H38.5998H38.594H38.5881H38.5823H38.5765H38.5706H38.5647H38.5588H38.553H38.547H38.5411H38.5352H38.5293H38.5233H38.5173H38.5114H38.5054H38.4994H38.4934H38.4873H38.4813H38.4753H38.4692H38.4631H38.4571H38.451H38.4449H38.4388H38.4327H38.4265H38.4204H38.4142H38.4081H38.4019H38.3957H38.3896H38.3834H38.3772H38.3709H38.3647H38.3585H38.3522H38.346H38.3397H38.3335H38.3272H38.3209H38.3146H38.3083H38.302H38.2957H38.2894H38.283H38.2767H38.2703H38.264H38.2576H38.2512H38.2449H38.2385H38.2321H38.2257H38.2193H38.2128H38.2064H38.2H38.1936H38.1871H38.1807H38.1742H38.1677H38.1613H38.1548H38.1483H38.1418H38.1353H38.1288H38.1223H38.1158H38.1093H38.1028H38.0963H38.0897H38.0832H38.0767H38.0701H38.0636H38.057H38.0505H38.0439H38.0373H38.0308H38.0242H38.0176H38.011H38.0044H37.9978H37.9912H37.9846H37.978H37.9714H37.9648H37.9582H37.9516H37.945H37.9383H37.9317H37.9251H37.9184H37.9118H37.9052H37.8985H37.8919H37.8852H37.8786H37.8719H37.8653H37.8586H37.852H37.8453H37.8387H37.832H37.8253H37.8187H37.812H37.8054H37.7987H37.792H37.7853H37.7787H37.772H37.7653H37.7587H37.752H37.7453H37.7387H37.732H37.7253H37.7186H37.712H37.7053H37.6986H37.692H37.6853H37.6786H37.6719H37.6653H37.6586H37.6519H37.6453H37.6386H37.632H37.6253H37.6186H37.612H37.6053H37.5987H37.592H37.5854H37.5787H37.5721H37.5654H37.5588H37.5521H37.5455H37.5389H37.5322H37.5256H37.519H37.5123H37.5057H37.4991H37.4925H37.4859H37.4793H37.4727H37.4661H37.4595H37.4529H37.4463H37.4397H37.4331H37.4265H37.42H37.4134H37.4068H37.4003H37.3937H37.3872H37.3806H37.3741H37.3675H37.361H37.3545H37.348H37.3414H37.3349H37.3284H37.3219H37.3154H37.3089H37.3025H37.296H37.2895H37.2831H37.2766H37.2701H37.2637H37.2573H37.2508H37.2444H37.238H37.2316H37.2252H37.2188H37.2124H37.206H37.1996H37.1933H37.1869H37.1806H37.1742H37.1679H37.1616H37.1552H37.1489H37.1426H37.1363H37.13H37.1238H37.1175H37.1112H37.105H37.0987H37.0925H37.0863H37.0801H37.0739H37.0677H37.0615H37.0553H37.0491H37.043H37.0368H37.0307H37.0246H37.0184H37.0123H37.0062H37.0002H36.9941H36.988H36.982H36.9759H36.9699H36.9638H36.9578H36.9518H36.9458H36.9399H36.9339H36.9279H36.922H36.9161H36.9101H36.9042H36.8983H36.8925H36.8866H36.8807H36.8749H36.869H36.8632H36.8574H36.8516H36.8458H36.8401H36.8343H36.8286H36.8228H36.8171H36.8114H36.8057H36.8H36.7944H36.7887H36.7831H36.7775H36.7718H36.7663H36.7607H36.7551H36.7496H36.744H36.7385H36.733H36.7275H36.722H36.7165H36.7111H36.7057H36.7002H36.6948H36.6895H36.6841H36.6787H36.6734H36.6681H36.6628H36.6575H36.6522H36.6469H36.6417H36.6365H36.6346C36.8059 17.3288 37.0832 16.5706 37.3366 15.8771L37.7462 14.7561L37.8748 14.4041L37.9103 14.3072L37.9195 14.2818L37.9219 14.2753L37.9225 14.2737L37.9226 14.2733L37.9227 14.2732L37.7348 14.2045L37.9227 14.2731L37.7379 14.1936C37.7461 14.169 37.7681 14.107 37.7989 14.0206C37.8406 14.0415 37.8879 14.078 37.9056 14.1019C37.9166 14.1229 37.929 14.1592 37.9318 14.1736C37.9331 14.1832 37.9342 14.1996 37.9343 14.2063C37.9342 14.2279 37.9303 14.2448 37.9302 14.2453C37.9289 14.252 37.9272 14.2578 37.9264 14.2605M38.9891 17.7964L37.9263 14.2608L37.9264 14.2605M38.9891 17.7964C38.8963 17.3478 38.7347 16.5557 38.5852 15.8214C38.4941 15.3735 38.4074 14.9468 38.3435 14.632L38.2671 14.2553L38.2459 14.1511L38.2404 14.1239L38.239 14.1169L38.2387 14.1155L38.2386 14.1151L38.2385 14.1147L38.2385 14.1146L38.1426 13.653M38.9891 17.7964L38.1426 13.653M37.9264 14.2605L37.9323 14.2431C37.9391 14.2234 37.9501 14.1924 37.9645 14.152C37.9821 14.1025 38.0044 14.04 38.03 13.9685C38.0461 13.9233 38.0636 13.8745 38.0819 13.8231C38.1013 13.7688 38.1217 13.7117 38.1426 13.653M37.9264 14.2605L38.1426 13.653M19.1411 22.9975H19.3116L19.3386 22.8291L21.5108 9.27677L21.5479 9.04512H21.3133H17.8403H17.6698L17.6429 9.21346L15.4705 22.7658L15.4334 22.9975H15.668H19.1411ZM31.9295 9.60885L31.955 9.45079L22.7569 13.4836L22.5569 13.4807C22.5569 13.481 22.5569 13.4813 22.5569 13.4817C22.542 14.523 23.0072 15.3291 23.6344 15.9506C24.2582 16.5687 25.0501 17.0127 25.7123 17.3396L25.7123 17.3396C26.3817 17.67 26.8089 17.9333 27.0681 18.1767C27.3174 18.4108 27.401 18.6163 27.4014 18.846C27.3954 19.2059 27.1846 19.4811 26.8316 19.6761C26.4743 19.8736 25.9919 19.9739 25.5156 19.9739C24.163 19.9739 23.4479 19.7666 22.3405 19.2714L21.8851 19.0558L21.6441 18.9416L21.602 19.205L21.116 22.2472L21.092 22.3971L21.2299 22.4605C22.0763 22.8495 23.6065 23.1852 25.1852 23.2H25.187C27.0402 23.2 28.591 22.7383 29.6872 21.899C30.7881 21.056 31.4173 19.8412 31.432 18.3737L31.432 18.3735C31.4393 17.5572 31.196 16.8315 30.6869 16.1861C30.1815 15.5454 29.4211 14.9922 28.4056 14.5017C27.7952 14.1901 27.324 13.9392 27.0041 13.6917C26.6863 13.4459 26.5588 13.235 26.5579 13.0106C26.564 12.7977 26.68 12.5629 26.9609 12.3741C27.2453 12.1829 27.6992 12.0406 28.3584 12.0406V12.0407L28.3635 12.0406C29.4536 12.0126 30.253 12.2759 30.864 12.5421L31.1764 12.6853L31.4153 12.7947L31.4572 12.5353L31.9295 9.60885ZM40.8312 9.20462L40.7983 9.04512H40.6354H37.9489C37.5173 9.04512 37.1142 9.10847 36.7669 9.30302C36.4151 9.50003 36.1412 9.8199 35.9485 10.2937C35.9484 10.2939 35.9484 10.2941 35.9483 10.2943L30.7899 22.7206L30.675 22.9973H30.9746H34.6189H34.7596L34.8072 22.8648L34.6189 22.7973L34.8072 22.8648L34.8072 22.8647L34.8073 22.8645L34.8076 22.8636L34.8089 22.86L34.8139 22.846L34.8332 22.7922L34.9029 22.5978L35.1233 21.9834L35.4886 20.9644H35.4912H35.4962H35.5012H35.5063H35.5115H35.5167H35.522H35.5273H35.5327H35.5381H35.5436H35.5492H35.5548H35.5605H35.5663H35.5721H35.5779H35.5838H35.5898H35.5958H35.6019H35.608H35.6142H35.6205H35.6268H35.6331H35.6396H35.646H35.6525H35.6591H35.6657H35.6724H35.6791H35.6859H35.6928H35.6997H35.7066H35.7136H35.7206H35.7277H35.7349H35.7421H35.7493H35.7566H35.7639H35.7713H35.7788H35.7863H35.7938H35.8014H35.809H35.8167H35.8244H35.8322H35.84H35.8479H35.8558H35.8638H35.8718H35.8798H35.8879H35.896H35.9042H35.9124H35.9207H35.929H35.9374H35.9458H35.9542H35.9627H35.9713H35.9798H35.9884H35.9971H36.0058H36.0145H36.0233H36.0321H36.041H36.0499H36.0588H36.0678H36.0768H36.0858H36.0949H36.1041H36.1132H36.1224H36.1317H36.1409H36.1503H36.1596H36.169H36.1784H36.1879H36.1974H36.2069H36.2165H36.2261H36.2357H36.2453H36.255H36.2648H36.2745H36.2843H36.2942H36.304H36.3139H36.3239H36.3338H36.3438H36.3538H36.3639H36.374H36.3841H36.3942H36.4044H36.4146H36.4248H36.4351H36.4453H36.4557H36.466H36.4764H36.4868H36.4972H36.5076H36.5181H36.5286H36.5391H36.5497H36.5603H36.5709H36.5815H36.5922H36.6028H36.6135H36.6243H36.635H36.6458H36.6566H36.6674H36.6782H36.6891H36.7H36.7109H36.7218H36.7328H36.7437H36.7547H36.7657H36.7767H36.7878H36.7989H36.8099H36.8211H36.8322H36.8433H36.8545H36.8657H36.8768H36.8881H36.8993H36.9105H36.9218H36.9331H36.9444H36.9557H36.967H36.9783H36.9897H37.001H37.0124H37.0238H37.0352H37.0466H37.0581H37.0695H37.081H37.0924H37.1039H37.1154H37.1269H37.1384H37.15H37.1615H37.173H37.1846H37.1962H37.2077H37.2193H37.2309H37.2425H37.2541H37.2658H37.2774H37.289H37.3007H37.3123H37.324H37.3356H37.3473H37.359H37.3706H37.3823H37.394H37.4057H37.4174H37.4291H37.4408H37.4525H37.4642H37.4759H37.4876H37.4994H37.5111H37.5228H37.5345H37.5463H37.558H37.5697H37.5814H37.5932H37.6049H37.6166H37.6284H37.6401H37.6518H37.6635H37.6752H37.687H37.6987H37.7104H37.7221H37.7338H37.7455H37.7572H37.7689H37.7806H37.7923H37.804H37.8157H37.8274H37.839H37.8507H37.8623H37.874H37.8856H37.8973H37.9089H37.9205H37.9321H37.9437H37.9553H37.9669H37.9785H37.9901H38.0016H38.0132H38.0247H38.0363H38.0478H38.0593H38.0708H38.0823H38.0938H38.1052H38.1167H38.1281H38.1395H38.151H38.1624H38.1737H38.1851H38.1965H38.2078H38.2192H38.2305H38.2418H38.253H38.2643H38.2756H38.2868H38.298H38.3092H38.3204H38.3316H38.3427H38.3539H38.365H38.3761H38.3871H38.3982H38.4092H38.4203H38.4313H38.4422H38.4532H38.4641H38.475H38.4859H38.4968H38.5077H38.5185H38.5293H38.5401H38.5508H38.5616H38.5723H38.583H38.5936H38.6043H38.6149H38.6255H38.636H38.6466H38.6571H38.6676H38.6781H38.6885H38.6989H38.7093H38.7196H38.73H38.7403H38.7505H38.7608H38.771H38.7812H38.7913H38.8015H38.8116H38.8216H38.8316H38.8417H38.8516H38.8616H38.8715H38.8814H38.8912H38.901H38.9108H38.9206H38.9303H38.9399H38.9496H38.9592H38.9688H38.9783H38.9878H38.9973H39.0068H39.0162H39.0255H39.0349H39.0442H39.0534H39.0626H39.0718H39.081H39.0901H39.0992H39.1082H39.1172H39.1261H39.135H39.1439H39.1528H39.1616H39.1703H39.179H39.1877H39.1963H39.2049H39.2135H39.222H39.2304H39.2389H39.2472H39.2556H39.2639H39.2721H39.2803H39.2885H39.2966H39.3047H39.3127H39.3207H39.3286H39.3365H39.3444H39.3521H39.3599H39.3676H39.3753H39.3829H39.3904H39.3979H39.4054H39.4128H39.4202H39.4275H39.4348H39.442H39.4492H39.4563H39.4633H39.4704H39.4773H39.4842H39.4911H39.4979H39.5047H39.5114H39.518H39.5246H39.5312H39.5377H39.5441H39.5505H39.5568H39.5631H39.5693H39.5755H39.5816H39.5876H39.5936H39.5996H39.6055H39.6113H39.6171H39.6228H39.6284H39.634H39.6396H39.6444C39.6993 21.23 39.7816 21.6339 39.8557 21.9991L39.9748 22.5862L40.0118 22.7691L40.0219 22.8193L40.0246 22.8324L40.0253 22.8358L40.0254 22.8366L40.0255 22.8368L40.0255 22.8369L40.2215 22.7973L40.0255 22.8369L40.0579 22.9973H40.2215H43.4374H43.6829L43.6332 22.7568L40.8312 9.20462ZM12.7673 9.04512H12.6278L12.5797 9.17604L9.42385 17.7502L9.19058 16.574L9.19046 16.5734L7.97599 10.346L7.9761 10.346L7.97455 10.3393C7.86437 9.86243 7.63335 9.53676 7.30969 9.33185C6.99348 9.13167 6.60967 9.06013 6.2152 9.04526L6.21521 9.04512H6.20767H0.619667H0.457109L0.423888 9.20424L0.366721 9.47807L0.327713 9.66492L0.512535 9.71261C1.8277 10.0519 3.00534 10.5369 4.0398 11.1378L7.1145 22.834L7.15371 22.9831H7.30793H10.9807H11.1157L11.1662 22.8579L16.6254 9.31992L16.7362 9.04512H16.4399H12.7673Z" fill="#FAA61A" stroke="#E0E0E0" stroke-width="0.4"/>
<path d="M19.1411 22.7975H15.668L17.8403 9.24512H21.3133L19.1411 22.7975Z" fill="#00579F"/>
<path d="M31.7321 9.57698C31.047 9.30277 29.9604 9 28.6169 9C25.187 9 22.7717 10.8453 22.7569 13.4836C22.7284 15.4301 24.4862 16.5113 25.8009 17.1603C27.1446 17.8235 27.6014 18.2564 27.6014 18.8475C27.5877 19.7554 26.5156 20.1739 25.5156 20.1739C24.1289 20.1739 23.386 19.9582 22.2568 19.4531L21.7995 19.2365L21.3135 22.2787C22.1281 22.6532 23.6289 22.9854 25.187 23C28.8313 23 31.2039 21.1832 31.232 18.3717C31.2459 16.829 30.3177 15.6468 28.3166 14.6809C27.1019 14.0608 26.3579 13.6427 26.3579 13.0082C26.3722 12.4314 26.9871 11.8406 28.3584 11.8406C29.4875 11.8117 30.3171 12.0855 30.9456 12.3595L31.2597 12.5034L31.7321 9.57698V9.57698Z" fill="#00579F"/>
<path d="M36.3482 17.9964C36.6342 17.2178 37.7348 14.2045 37.7348 14.2045C37.7204 14.2335 38.0203 13.4116 38.1918 12.907L38.4345 14.0748C38.4345 14.0748 39.0922 17.3188 39.2351 17.9964C38.6922 17.9964 37.0342 17.9964 36.3482 17.9964ZM40.6354 9.24512H37.9489C37.1204 9.24512 36.491 9.49001 36.1336 10.3696L30.9746 22.7973H34.6189C34.6189 22.7973 35.2189 21.1246 35.3478 20.7644C35.7476 20.7644 39.2928 20.7644 39.8071 20.7644C39.9068 21.2402 40.2215 22.7973 40.2215 22.7973H43.4374L40.6354 9.24512V9.24512Z" fill="#00579F"/>
<path d="M12.7673 9.24512L9.36596 18.4865L8.99428 16.6123C8.36543 14.4496 6.39324 12.0999 4.19238 10.9316L7.30793 22.7831H10.9807L16.4399 9.24512H12.7673V9.24512Z" fill="#00579F"/>
<path d="M6.20767 9.24512H0.619667L0.5625 9.51895C4.92149 10.6436 7.80836 13.3545 8.99445 16.6128L7.77968 10.3843C7.57969 9.51876 6.96509 9.27367 6.20767 9.24512Z" fill="#FAA61A"/>
</svg>
