<svg width="88" height="32" viewBox="0 0 88 32" fill="none" xmlns="http://www.w3.org/2000/svg">
<g clip-path="url(#clip0)">
<path d="M33.083 15.4675C33.083 15.4675 34.728 15.6365 35.965 17.0995C36.484 17.7075 36.892 21.4215 36.892 21.4215H38.294L40.171 17.7525L40.767 21.4215H42.18L45.139 15.4675C45.139 15.4675 44.145 15.4335 43.803 15.4675C43.472 15.5015 43.207 15.9065 43.118 16.1085C43.03 16.3115 41.716 19.0465 41.716 19.0465L41.12 15.4565C41.12 15.4565 40.369 15.4115 40.104 15.4565C39.839 15.5015 39.574 15.8395 39.453 16.0985C39.332 16.3575 38.073 19.0815 38.073 19.0815C38.073 19.0815 37.941 16.3915 37.101 15.8065C36.671 15.4895 36.804 15.4335 33.083 15.4675Z" fill="#0E0670"/>
<path d="M42.367 21.722H40.513L40.022 18.703L38.478 21.722H36.624L36.576 21.296C36.564 21.194 36.546 21.048 36.523 20.87C36.477 20.515 36.41 20.035 36.328 19.537C36.231 18.958 36.134 18.476 36.038 18.105C35.984 17.891 35.928 17.71 35.873 17.565C35.804 17.383 35.755 17.315 35.737 17.294L35.716 17.263C35.256 16.724 34.655 16.294 33.949 16.013C33.674 15.904 33.441 15.842 33.294 15.809C33.215 15.791 33.152 15.78 33.11 15.774L32.933 15.756L32.918 15.616L32.938 15.168L33.08 15.167C35.055 15.147 35.882 15.159 36.356 15.206C36.618 15.233 36.793 15.273 36.941 15.342C37.058 15.396 37.147 15.463 37.225 15.522L37.279 15.563C37.519 15.73 37.719 16.023 37.887 16.454C38.009 16.766 38.113 17.155 38.197 17.607C38.219 17.724 38.239 17.844 38.258 17.966L38.446 17.56C38.776 16.846 39.121 16.1 39.182 15.97C39.26 15.803 39.378 15.629 39.507 15.491C39.682 15.303 39.866 15.192 40.055 15.159C40.185 15.137 40.409 15.13 40.721 15.138C40.822 15.14 40.917 15.144 40.99 15.147L41.378 15.169L41.858 18.059L42.115 17.523C42.544 16.628 42.81 16.068 42.845 15.987C42.913 15.83 43.027 15.656 43.148 15.522C43.341 15.31 43.552 15.19 43.773 15.168C43.926 15.153 44.197 15.147 44.604 15.154L45 15.163L45.616 15.184L45.41 15.601L42.367 21.722ZM40.768 21.421H42.181L45.141 15.467L44.6 15.455C44.21 15.449 43.942 15.454 43.804 15.468C43.658 15.483 43.512 15.569 43.37 15.725C43.251 15.856 43.162 16.009 43.12 16.109C43.069 16.224 42.638 17.126 42.385 17.653L41.718 19.043L41.12 15.456L41.022 15.451C40.924 15.447 40.822 15.442 40.712 15.44C40.348 15.431 40.181 15.444 40.104 15.457C39.952 15.483 39.814 15.602 39.725 15.698C39.617 15.813 39.518 15.959 39.453 16.099C39.392 16.229 39.047 16.975 38.718 17.687L38.084 19.059L38.026 18.52C37.994 18.223 37.952 17.934 37.902 17.664C37.821 17.23 37.722 16.861 37.608 16.566C37.464 16.197 37.294 15.942 37.103 15.808L37.045 15.765C36.974 15.711 36.902 15.657 36.816 15.617C36.699 15.563 36.553 15.531 36.326 15.508C35.876 15.463 35.086 15.453 33.225 15.469L33.224 15.492C33.262 15.499 33.307 15.508 33.36 15.519C33.517 15.554 33.767 15.62 34.061 15.737C34.802 16.032 35.461 16.505 35.966 17.102C36.028 17.174 36.091 17.295 36.154 17.461C36.213 17.616 36.272 17.809 36.329 18.033C36.426 18.412 36.525 18.902 36.623 19.49C36.706 19.992 36.773 20.475 36.82 20.833C36.843 21.013 36.861 21.159 36.873 21.263L36.892 21.423H38.294L40.171 17.754L40.768 21.421Z" fill="#E0E0E0"/>
<path d="M56.8933 15.3597C55.0983 15.1717 54.3633 16.4427 54.3633 16.4427L54.9093 13.1377C54.9093 13.1377 54.2513 13.1047 53.9623 13.1377C53.6833 13.1707 53.2383 13.3587 53.1373 13.7677C53.0483 14.1767 51.9443 21.3937 51.9443 21.3937H53.5833L53.7173 20.5207C53.7173 20.5207 53.9073 21.3167 55.6123 21.4157C57.1503 21.5037 58.2763 20.3547 58.6213 19.3927C59.2673 17.6587 58.6883 15.5477 56.8933 15.3597ZM57.0713 18.9187C56.8373 19.6477 56.1243 20.2337 55.3993 20.1567C54.6863 20.0797 54.2953 19.7587 53.9393 19.2837L54.1953 17.6367C54.1953 17.6367 55.0093 16.5427 56.0903 16.7747C57.2613 17.0287 57.3063 18.1897 57.0713 18.9187Z" fill="#0E0670"/>
<path d="M55.7857 21.7221C55.7227 21.7221 55.6587 21.7201 55.5947 21.7161C54.8717 21.6741 54.3077 21.5091 53.9127 21.2241L53.8417 21.6961H51.5957L52.2117 17.6901C52.5997 15.1831 52.8067 13.8791 52.8447 13.7051C52.9087 13.4401 53.0737 13.2201 53.3217 13.0611C53.5007 12.9451 53.7217 12.8651 53.9277 12.8411C54.0637 12.8261 54.2737 12.8201 54.5507 12.8271C54.6347 12.8281 54.7137 12.8311 54.7767 12.8331V12.8321L55.0757 12.8391L55.0747 12.8461L55.2627 12.8551L54.8147 15.5641C55.2327 15.2721 55.9317 14.9591 56.9267 15.0611C57.8647 15.1591 58.6037 15.7531 58.9547 16.6911C59.2667 17.5231 59.2487 18.5731 58.9037 19.4981C58.5737 20.4111 57.4807 21.7221 55.7857 21.7221ZM53.7027 20.6081L53.9137 20.8311C53.9457 20.8651 53.9827 20.8981 54.0247 20.9331C54.3657 21.2091 54.9147 21.3771 55.6117 21.4181C57.0427 21.5021 58.2467 20.4391 58.6207 19.3961C58.9417 18.5361 58.9607 17.5651 58.6727 16.7981C58.3587 15.9581 57.7267 15.4481 56.8947 15.3611C55.9727 15.2631 55.3297 15.5641 54.9567 15.8321C54.8607 15.9011 54.7757 15.9721 54.7047 16.0401L54.3807 16.3481L54.9107 13.1401L54.8027 13.1351C54.7377 13.1331 54.6467 13.1291 54.5457 13.1271C54.2837 13.1231 54.0837 13.1261 53.9637 13.1391C53.8037 13.1581 53.6247 13.2231 53.4847 13.3131C53.3577 13.3951 53.1947 13.5401 53.1387 13.7691C53.1027 13.9351 52.8907 15.2701 52.5097 17.7351L51.9467 21.3951H53.5857L53.7027 20.6081ZM55.5267 20.1641C55.4847 20.1641 55.4427 20.1611 55.4007 20.1571C55.0587 20.1191 54.7767 20.0251 54.5357 19.8691C54.3417 19.7431 54.1637 19.5731 53.9797 19.3351L53.9397 19.2841L54.2177 17.6081C54.2567 17.5611 54.2927 17.5191 54.3397 17.4691C54.4237 17.3791 54.5617 17.2451 54.7367 17.1181C55.1797 16.7971 55.6467 16.6781 56.0897 16.7731C56.6097 16.8861 56.9607 17.1951 57.1087 17.6671C57.2217 18.0351 57.2087 18.4901 57.0717 18.9181C56.8407 19.6401 56.1787 20.1641 55.5267 20.1641ZM54.2567 19.2021C54.4047 19.3871 54.5467 19.5191 54.6987 19.6181C54.9027 19.7501 55.1357 19.8271 55.4327 19.8591C55.9647 19.9301 56.5847 19.4541 56.7867 18.8281C56.9027 18.4641 56.9167 18.0631 56.8217 17.7581C56.7067 17.3861 56.4457 17.1591 56.0267 17.0691C55.6647 16.9941 55.2907 17.0911 54.9137 17.3641C54.7577 17.4771 54.6347 17.5961 54.5597 17.6761C54.5277 17.7101 54.5007 17.7401 54.4807 17.7641L54.2567 19.2021Z" fill="#E0E0E0"/>
<path d="M64.4406 15.3537C62.8826 15.1767 62.0806 16.2507 62.0806 16.2507L62.2156 15.4647H60.5786L59.2236 23.7497C59.2236 23.7497 59.8446 23.7607 60.3636 23.7277C60.9846 23.6947 61.1086 22.8857 61.1086 22.8857L61.4246 20.6817C61.4246 20.6817 62.1246 21.5347 63.6266 21.5347C65.5916 21.5347 66.5166 19.6407 66.6186 18.2117C66.6986 17.0367 65.9876 15.5307 64.4406 15.3537ZM64.9376 18.6877C64.8026 19.5957 63.9776 20.2937 63.0746 20.2167C61.8886 20.1277 61.6296 19.3527 61.6296 19.3527L61.9006 17.7027C61.9006 17.7027 62.6116 16.8387 63.5716 16.8717C64.6096 16.9157 65.0726 17.7907 64.9376 18.6877Z" fill="#0E0670"/>
<path d="M59.369 24.0515L58.873 24.0435L58.928 23.7015L60.324 15.1635H62.572L62.517 15.4805H62.518C62.918 15.2305 63.589 14.9535 64.474 15.0545C66.292 15.2625 66.998 17.0375 66.918 18.2305C66.857 19.0845 66.545 19.9435 66.062 20.5875C65.635 21.1555 64.867 21.8335 63.627 21.8335C62.785 21.8335 62.175 21.5785 61.811 21.3645C61.754 21.3315 61.7 21.2975 61.645 21.2605L61.428 22.7815L61.4014 22.9297L61.369 23.0915C61.334 23.2155 61.289 23.3305 61.235 23.4325C61.044 23.7955 60.74 24.0065 60.381 24.0255C60.116 24.0425 59.825 24.0485 59.601 24.0505C59.514 24.0555 59.432 24.0515 59.369 24.0515ZM59.265 23.7495H59.328C59.397 23.7505 59.491 23.7505 59.6 23.7505C59.818 23.7485 60.103 23.7435 60.364 23.7275C60.623 23.7135 60.826 23.5675 60.97 23.2935C61.014 23.2105 61.051 23.1145 61.08 23.0115L61.109 22.8885L61.131 22.7375L61.421 20.7065L61.626 20.8745C61.734 20.9635 61.844 21.0395 61.962 21.1085C62.293 21.3025 62.852 21.5345 63.626 21.5345C64.741 21.5345 65.435 20.9235 65.82 20.4095C66.27 19.8095 66.56 19.0085 66.618 18.2115C66.69 17.1375 66.061 15.5405 64.439 15.3535C63.632 15.2635 63.035 15.5115 62.674 15.7365C62.569 15.8015 62.478 15.8685 62.401 15.9315L62.09 16.1845L62.214 15.4645H60.58L59.225 23.7495H59.265ZM63.211 20.2215C63.166 20.2215 63.121 20.2195 63.075 20.2155C62.462 20.1695 62.101 19.9375 61.907 19.7505C61.822 19.6685 61.748 19.5755 61.688 19.4755C61.67 19.4445 61.658 19.4175 61.648 19.3975L61.628 19.3555L61.635 19.3095L61.901 17.6955L61.935 17.6615C61.952 17.6425 61.984 17.6095 62.025 17.5675C62.1 17.4945 62.221 17.3835 62.376 17.2745C62.772 16.9935 63.193 16.8615 63.57 16.8705C64.187 16.8975 64.522 17.2055 64.695 17.4595C64.921 17.7925 65.007 18.2285 64.937 18.6875C64.809 19.5595 64.049 20.2215 63.211 20.2215ZM61.94 19.3105C61.942 19.3145 61.944 19.3185 61.947 19.3235C61.993 19.4005 62.049 19.4705 62.115 19.5345C62.343 19.7545 62.682 19.8865 63.097 19.9175C63.818 19.9795 64.527 19.4105 64.64 18.6435C64.698 18.2655 64.627 17.8955 64.447 17.6285C64.255 17.3465 63.948 17.1885 63.558 17.1705C63.226 17.1695 62.89 17.2765 62.549 17.5195C62.41 17.6185 62.303 17.7155 62.237 17.7815C62.216 17.8025 62.198 17.8215 62.182 17.8375L61.94 19.3105Z" fill="#E0E0E0"/>
<path d="M72.7468 19.7697C73.1118 17.9687 73.0568 17.1407 73.0568 17.1407C72.9798 15.9807 71.8618 15.4067 70.6558 15.3407C69.4498 15.2747 68.3548 15.7167 68.3548 15.7167L68.2108 17.0647C69.4828 16.4677 70.3348 16.6007 70.9988 16.8987C71.6628 17.1967 71.3528 18.1027 71.3528 18.1027C71.3528 18.1027 70.4678 17.6497 69.4498 17.6387C68.4318 17.6277 67.1258 18.2577 67.0488 19.6267C66.9718 20.8747 67.8238 21.5157 69.1398 21.5817C70.4458 21.6477 71.1088 20.8307 71.1088 20.8307C71.1088 20.8307 71.2638 21.3497 72.2038 21.4827C72.9778 21.5817 73.2768 21.2837 73.2768 21.2837L72.7468 19.7697ZM71.1318 19.7807C71.1318 19.7807 70.5678 20.3997 69.6938 20.3667C68.8198 20.3337 68.5878 19.9797 68.6098 19.5827C68.6318 19.0857 69.2848 18.7097 69.9598 18.7207C70.6348 18.7427 70.9888 18.9307 71.2098 19.0967L71.1318 19.7807Z" fill="#0E0670"/>
<path d="M69.1716 21.8605C68.7216 21.8605 68.2336 21.7435 67.7486 21.4145C67.6656 21.3645 66.6806 20.7365 66.7496 19.6085C66.7996 18.7045 67.3076 18.1645 67.7236 17.8705C68.2106 17.5255 68.8286 17.3315 69.4526 17.3385C70.0156 17.3455 70.5386 17.4795 70.8766 17.5895C70.9676 17.6195 71.0506 17.6505 71.1236 17.6785C71.1246 17.6575 71.1246 17.6395 71.1236 17.6195C71.1196 17.3885 71.0406 17.2465 70.8756 17.1725C70.5246 17.0145 70.1996 16.9365 69.8346 16.9455C69.3776 16.9495 68.8876 17.0775 68.3376 17.3355L67.8556 17.5625L68.0755 15.5055L68.3806 15.3815L68.3826 15.3865C68.4036 15.3795 68.4256 15.3715 68.4496 15.3635C68.5786 15.3205 68.7616 15.2655 68.9826 15.2115C69.5766 15.0695 70.1486 15.0115 70.6716 15.0405C71.3656 15.0785 71.9796 15.2655 72.4466 15.5815C72.9556 15.9245 73.2616 16.4025 73.3406 16.9715L73.3566 16.9705L73.3576 17.1345C73.3576 17.1385 73.3576 17.1415 73.3576 17.1455L73.3656 17.2705L73.3606 17.2715C73.3606 17.2805 73.3606 17.2895 73.3606 17.2985C73.3596 17.4105 73.3546 17.5785 73.3386 17.8015C73.3086 18.2105 73.0896 19.5415 73.0486 19.7865L73.5576 21.3065L73.4556 21.3685C73.4346 21.3815 72.9276 21.6865 72.1926 21.6315C72.0626 21.6205 71.4466 21.5515 71.0896 21.1995C70.8096 21.3995 70.0636 21.8605 69.1716 21.8605ZM69.4216 17.6375C68.8796 17.6375 68.3256 17.8115 67.8976 18.1145C67.5346 18.3715 67.0926 18.8415 67.0486 19.6265C66.9896 20.6005 67.8976 21.1545 67.9066 21.1595L67.9136 21.1645C69.4286 22.1915 70.9486 20.9355 71.0146 20.8825L71.1386 20.7785L71.2336 20.9095C71.4406 21.1975 71.9496 21.3115 72.2176 21.3345C72.6676 21.3725 73.0266 21.2445 73.1936 21.1685L72.7396 19.8135L72.7466 19.7775C72.7486 19.7615 73.0086 18.2105 73.0396 17.7825C73.0546 17.5675 73.0596 17.4075 73.0606 17.3005C73.0606 17.2485 73.0596 17.2095 73.0586 17.1835L73.0576 17.1435C73.0216 16.6045 72.7526 16.1515 72.2806 15.8335C71.8636 15.5515 71.2876 15.3775 70.6576 15.3435C70.1576 15.3135 69.6186 15.3705 69.0536 15.5065C68.8416 15.5575 68.6666 15.6105 68.5446 15.6515C68.4846 15.6715 68.4376 15.6885 68.4036 15.7005L68.3546 15.7195L68.2106 17.0665C68.8006 16.7895 69.3306 16.6525 69.8326 16.6485C70.2256 16.6435 70.6126 16.7275 70.9986 16.9015C71.1876 16.9865 71.4146 17.1795 71.4246 17.6155C71.4266 17.7115 71.4176 17.8145 71.3986 17.9215L71.3646 18.1065L71.1916 18.0325C71.0926 17.9895 70.9536 17.9335 70.7836 17.8785C70.4656 17.7745 69.9756 17.6495 69.4496 17.6435C69.4396 17.6375 69.4306 17.6375 69.4216 17.6375ZM69.7576 20.3685C69.7366 20.3685 69.7146 20.3675 69.6936 20.3675C69.2896 20.3505 68.9936 20.2645 68.8156 20.1105C68.6656 19.9825 68.5956 19.8045 68.6096 19.5825C68.6226 19.3435 68.7746 19.1245 69.0396 18.9615C69.2876 18.8085 69.6116 18.7205 69.9306 18.7205C69.9406 18.7205 69.9496 18.7205 69.9576 18.7205C70.4496 18.7385 70.8336 18.8425 71.1336 19.0425L71.2096 19.0935L71.1316 19.7845L71.0306 19.8775C70.9386 19.9555 70.8416 20.0255 70.7406 20.0865C70.4326 20.2705 70.0946 20.3685 69.7576 20.3685ZM69.9276 19.0195C69.6646 19.0195 69.3996 19.0905 69.1976 19.2165C69.0196 19.3255 68.9146 19.4635 68.9086 19.5955V19.5995C68.9016 19.7285 68.9326 19.8165 69.0116 19.8825C69.0986 19.9575 69.2886 20.0505 69.7056 20.0675C70.0776 20.0625 70.3936 19.9455 70.5866 19.8285C70.6736 19.7765 70.7566 19.7175 70.8346 19.6495L70.8466 19.6395L70.8906 19.2435C70.6496 19.1055 70.3406 19.0325 69.9516 19.0195C69.9416 19.0195 69.9346 19.0195 69.9276 19.0195Z" fill="#E0E0E0"/>
<path d="M74.2275 15.5049L76.0735 21.2569C76.0735 21.2569 75.4695 22.5129 74.6305 22.4689C73.7915 22.4249 73.5795 22.2039 73.5795 22.2039L73.3555 23.5699C73.3555 23.5699 74.2395 24.0329 75.1225 23.7679C76.0065 23.5039 76.7445 22.8309 77.1025 22.2919C77.4605 21.7519 80.9055 15.5039 80.9055 15.5039C80.9055 15.5039 80.0325 15.4929 79.6195 15.5039C79.2055 15.5149 79.0375 15.7239 78.8475 16.1319C78.6345 16.5729 77.1355 19.3939 77.1355 19.3939L75.9835 15.5259L74.2275 15.5049Z" fill="#0E0670"/>
<path d="M74.5424 24.1512C74.2714 24.1512 74.0244 24.1082 73.8344 24.0602C73.6424 24.0122 73.4884 23.9562 73.3934 23.9162C73.3794 23.9102 73.3664 23.9042 73.3534 23.8992L73.3494 23.9052L73.0254 23.7362L73.3794 21.5652L73.7924 21.9912C73.7994 21.9942 73.8324 22.0142 73.8974 22.0392C74.0214 22.0872 74.2514 22.1472 74.6464 22.1692C74.9564 22.1772 75.2474 21.9162 75.4364 21.6882C75.5664 21.5302 75.6624 21.3772 75.7074 21.2992C75.7244 21.2732 75.7374 21.2492 75.7504 21.2282L73.8144 15.2002L76.2084 15.2302L77.2144 18.6062L77.6464 17.7892C78.0244 17.0742 78.4674 16.2302 78.5774 16.0042C78.6714 15.8042 78.7814 15.5972 78.9504 15.4472C79.1244 15.2922 79.3414 15.2132 79.6124 15.2062C79.8224 15.2012 80.1474 15.2012 80.4204 15.2022L80.8704 15.2052H80.9084L81.4104 15.2122L80.6244 16.6352C80.2964 17.2292 79.8534 18.0282 79.4004 18.8432C78.1954 21.0112 77.5054 22.2282 77.3524 22.4592C76.9884 23.0092 76.2084 23.7582 75.2084 24.0572C74.9794 24.1242 74.7534 24.1512 74.5424 24.1512ZM73.3724 23.5792C73.4244 23.6032 73.4614 23.6202 73.5074 23.6392C73.5934 23.6742 73.7324 23.7262 73.9064 23.7692C74.2104 23.8452 74.6644 23.9082 75.1224 23.7692C76.0454 23.4932 76.7654 22.8012 77.1014 22.2922C77.2044 22.1382 77.6404 21.3892 79.1374 18.6952C79.5904 17.8822 80.0334 17.0842 80.3614 16.4892L80.9054 15.5042H80.8674L80.4174 15.5012C80.1494 15.5002 79.8264 15.5002 79.6194 15.5052C79.4194 15.5102 79.2694 15.5632 79.1484 15.6712C79.0204 15.7852 78.9274 15.9612 78.8464 16.1332C78.7354 16.3642 78.2894 17.2122 77.9104 17.9302L77.1354 19.3962L75.9834 15.5282L74.2264 15.5062L76.0734 21.2602L76.0434 21.3172C76.0194 21.3612 75.9954 21.4052 75.9644 21.4562C75.9044 21.5572 75.8034 21.7162 75.6664 21.8812C75.3404 22.2732 75.0074 22.4722 74.6754 22.4722C74.6594 22.4722 74.6454 22.4712 74.6304 22.4702C74.1964 22.4482 73.9344 22.3772 73.7894 22.3222C73.7184 22.2962 73.6694 22.2692 73.6384 22.2512H73.5724L73.3554 23.5732L73.3724 23.5792Z" fill="#E0E0E0"/>
<path d="M82.6416 17.6015V15.8535H83.3776C83.5246 15.8535 83.6406 15.8645 83.7136 15.8955C83.7876 15.9275 83.8506 15.9795 83.9026 16.0635C83.9446 16.1475 83.9766 16.2325 83.9766 16.3265C83.9766 16.4525 83.9346 16.5585 83.8606 16.6425C83.7866 16.7265 83.6716 16.7795 83.5036 16.8005C83.5666 16.8325 83.6086 16.8635 83.6406 16.8845C83.7036 16.9475 83.7666 17.0215 83.8196 17.1165L84.1036 17.5905H83.8306L83.6096 17.2215C83.5466 17.1165 83.4936 17.0315 83.4516 16.9795C83.4096 16.9265 83.3776 16.8845 83.3356 16.8635C83.3046 16.8425 83.2726 16.8215 83.2306 16.8215C83.2096 16.8105 83.1676 16.8105 83.1046 16.8105H82.8526V17.5895H82.6426V17.6015H82.6416ZM82.8616 16.6215H83.3346C83.4396 16.6215 83.5136 16.6115 83.5656 16.5895C83.6186 16.5685 83.6706 16.5365 83.6916 16.4845C83.7236 16.4315 83.7336 16.3795 83.7336 16.3265C83.7336 16.2425 83.7016 16.1795 83.6496 16.1265C83.5966 16.0735 83.5026 16.0425 83.3766 16.0425H82.8516V16.6215H82.8616Z" fill="#0E0670"/>
<path d="M83.2926 18.265C82.4306 18.265 81.7266 17.559 81.7266 16.696C81.7266 15.833 82.4306 15.127 83.2926 15.127C84.1546 15.127 84.8586 15.833 84.8586 16.696C84.8696 17.559 84.1656 18.265 83.2926 18.265ZM83.2926 15.326C82.5466 15.326 81.9366 15.937 81.9366 16.685C81.9366 17.433 82.5466 18.044 83.2926 18.044C84.0386 18.044 84.6486 17.433 84.6486 16.685C84.6486 15.937 84.0496 15.326 83.2926 15.326Z" fill="#0E0670"/>
<path d="M83.2975 18.265C84.1646 18.265 84.8675 17.5621 84.8675 16.695C84.8675 15.8279 84.1646 15.125 83.2975 15.125C82.4305 15.125 81.7275 15.8279 81.7275 16.695C81.7275 17.5621 82.4305 18.265 83.2975 18.265Z" fill="#E0E0E0"/>
<path d="M83.2978 18.5662C82.2668 18.5662 81.4268 17.7262 81.4268 16.6952C81.4268 15.6642 82.2668 14.8252 83.2978 14.8252C84.3288 14.8252 85.1678 15.6642 85.1678 16.6952C85.1678 17.7262 84.3288 18.5662 83.2978 18.5662ZM83.2978 15.1252C82.4318 15.1252 81.7278 15.8302 81.7278 16.6952C81.7278 17.5612 82.4318 18.2652 83.2978 18.2652C84.1628 18.2652 84.8668 17.5612 84.8668 16.6952C84.8668 15.8292 84.1628 15.1252 83.2978 15.1252Z" fill="#E0E0E0"/>
<path d="M82.6416 17.6015V15.8535H83.3776C83.5246 15.8535 83.6406 15.8645 83.7136 15.8955C83.7876 15.9275 83.8506 15.9795 83.9026 16.0635C83.9446 16.1475 83.9766 16.2325 83.9766 16.3265C83.9766 16.4525 83.9346 16.5585 83.8606 16.6425C83.7866 16.7265 83.6716 16.7795 83.5036 16.8005C83.5666 16.8325 83.6086 16.8635 83.6406 16.8845C83.7036 16.9475 83.7666 17.0215 83.8196 17.1165L84.1036 17.5905H83.8306L83.6096 17.2215C83.5466 17.1165 83.4936 17.0315 83.4516 16.9795C83.4096 16.9265 83.3776 16.8845 83.3356 16.8635C83.3046 16.8425 83.2726 16.8215 83.2306 16.8215C83.2096 16.8105 83.1676 16.8105 83.1046 16.8105H82.8526V17.5895H82.6426V17.6015H82.6416ZM82.8616 16.6215H83.3346C83.4396 16.6215 83.5136 16.6115 83.5656 16.5895C83.6186 16.5685 83.6706 16.5365 83.6916 16.4845C83.7236 16.4315 83.7336 16.3795 83.7336 16.3265C83.7336 16.2425 83.7016 16.1795 83.6496 16.1265C83.5966 16.0735 83.5026 16.0425 83.3766 16.0425H82.8516V16.6215H82.8616Z" fill="#0E0670"/>
<path d="M83.2926 18.265C82.4306 18.265 81.7266 17.559 81.7266 16.696C81.7266 15.833 82.4306 15.127 83.2926 15.127C84.1546 15.127 84.8586 15.833 84.8586 16.696C84.8696 17.559 84.1656 18.265 83.2926 18.265ZM83.2926 15.326C82.5466 15.326 81.9366 15.937 81.9366 16.685C81.9366 17.433 82.5466 18.044 83.2926 18.044C84.0386 18.044 84.6486 17.433 84.6486 16.685C84.6486 15.937 84.0496 15.326 83.2926 15.326Z" fill="#0E0670"/>
<path d="M51.0362 16.3954C50.6511 15.8158 50.0962 15.1582 48.8844 15.1582C47.061 15.1582 45.7247 16.2728 45.4755 18.0449C45.2151 19.8171 46.3589 21.2103 47.9331 21.3886C49.9376 21.6116 50.753 20.7422 50.753 20.7422L50.9003 19.5162C50.9003 19.5162 49.881 20.1738 48.5107 20.118C46.9365 20.04 47.0384 18.7805 47.0384 18.7805L51.308 18.736C51.2967 18.7248 51.5571 17.1979 51.0362 16.3954ZM49.8584 17.6883H47.1177C47.1177 17.6883 47.2989 16.3954 48.7372 16.3954C49.8584 16.3954 49.8584 17.6883 49.8584 17.6883Z" fill="#0E0670"/>
<path fill-rule="evenodd" clip-rule="evenodd" d="M51.288 16.2322C51.5987 16.7109 51.6619 17.3695 51.6634 17.8617C51.6641 18.1161 51.6481 18.3432 51.6329 18.5065C51.6253 18.5878 51.6178 18.6537 51.6128 18.6983C51.6106 18.7172 51.6091 18.731 51.6081 18.74C51.6077 18.7765 51.6005 18.8133 51.5864 18.8484C51.541 18.9608 51.4325 19.0349 51.3113 19.0361L51.2602 19.0367L51.0393 20.8758L50.972 20.9476L50.7532 20.7424L50.9004 19.5164C50.9004 19.5164 50.7843 19.5913 50.5776 19.6885C50.1722 19.8791 49.4185 20.1551 48.5108 20.1182C47.4336 20.0648 47.1413 19.4582 47.064 19.0805C47.05 19.0119 47.0431 18.9509 47.0398 18.9021C47.0348 18.8269 47.0386 18.7807 47.0386 18.7807L51.3081 18.7362C51.3077 18.7357 51.3077 18.7327 51.3081 18.7273C51.3088 18.7161 51.3112 18.6949 51.3146 18.6648C51.3499 18.3533 51.492 17.0974 51.0363 16.3956C50.6513 15.816 50.0964 15.1584 48.8846 15.1584C47.0612 15.1584 45.7249 16.273 45.4757 18.0451C45.2152 19.8173 46.3591 21.2105 47.9333 21.3888C49.9378 21.6117 50.7532 20.7424 50.7532 20.7424C50.972 20.9476 50.9722 20.9475 50.972 20.9476L50.9708 20.9489L50.9692 20.9506L50.9652 20.9548L50.9532 20.9667C50.9435 20.9761 50.9304 20.9885 50.9138 21.0034C50.8804 21.033 50.8329 21.0725 50.7704 21.1177C50.6454 21.2083 50.4607 21.3217 50.2104 21.4261C49.7079 21.6356 48.9516 21.8039 47.9001 21.687C46.1543 21.4892 44.8947 19.9385 45.1788 18.0024C45.3129 17.0499 45.7423 16.2594 46.3964 15.7079C47.05 15.1567 47.9109 14.8584 48.8846 14.8584C49.5498 14.8584 50.052 15.0405 50.4425 15.3139C50.8272 15.5832 51.0871 15.9299 51.2862 16.2296L51.288 16.2322ZM47.3712 19.0773C47.3882 19.1416 47.4132 19.211 47.4497 19.2802C47.5672 19.5029 47.8346 19.784 48.5244 19.8185C49.1588 19.8441 49.7154 19.7046 50.1155 19.5568C50.3152 19.483 50.4739 19.4079 50.5814 19.352C50.6352 19.3241 50.6759 19.3011 50.7025 19.2856C50.7157 19.2778 50.7254 19.2719 50.7314 19.2683L50.7375 19.2645L50.7384 19.2639L51.0878 19.0385L47.3712 19.0773ZM47.1178 17.6885C47.1178 17.6885 47.1355 17.5621 47.2038 17.3885C47.3539 17.0065 47.7486 16.3956 48.7373 16.3956C49.5081 16.3956 49.749 17.0065 49.8243 17.3885C49.8585 17.5621 49.8585 17.6885 49.8585 17.6885C49.8579 17.6885 49.8574 17.6885 49.8568 17.6885H47.1178ZM47.5315 17.3885H49.5174C49.5003 17.3159 49.4763 17.2379 49.4431 17.1614C49.3869 17.0316 49.3089 16.9171 49.2027 16.8354C49.1006 16.7569 48.9555 16.6956 48.7373 16.6956C48.1268 16.6956 47.8097 16.9618 47.6344 17.2135C47.5933 17.2725 47.5594 17.3318 47.5315 17.3885Z" fill="#E0E0E0"/>
<g filter="url(#filter0_d)">
<path d="M19.574 13.3281L23.1146 6.9668L16.8174 10.5434L19.574 13.3281Z" fill="url(#paint0_linear)"/>
</g>
<g filter="url(#filter1_d)">
<path fill-rule="evenodd" clip-rule="evenodd" d="M19.6414 13.8237L16.3281 10.4766L23.897 6.17773L19.6414 13.8237ZM23.1142 6.96738L16.817 10.544L19.5736 13.3287L23.1142 6.96738Z" fill="#E0E0E0"/>
</g>
<g filter="url(#filter2_d)">
<path d="M21.6729 17.4416L28.7794 15.4489L21.6729 13.4307V17.4416Z" fill="url(#paint1_linear)"/>
</g>
<g filter="url(#filter3_d)">
<path fill-rule="evenodd" clip-rule="evenodd" d="M21.373 17.8379V13.0342L29.8842 15.4513L21.373 17.8379ZM28.7796 15.4495L21.673 13.4312V17.4422L28.7796 15.4495Z" fill="#E0E0E0"/>
</g>
<g filter="url(#filter4_d)">
<path d="M10.0899 17.5693L6.67578 23.7518L12.7707 20.2774L10.0899 17.5693Z" fill="url(#paint2_linear)"/>
</g>
<g filter="url(#filter5_d)">
<path fill-rule="evenodd" clip-rule="evenodd" d="M10.0213 17.0742L13.2592 20.3451L5.89746 24.5417L10.0213 17.0742ZM6.67593 23.7527L12.7709 20.2782L10.0901 17.5702L6.67593 23.7527Z" fill="#E0E0E0"/>
</g>
<g filter="url(#filter6_d)">
<path d="M14.845 29.5003L16.7671 22.6025H12.9482L14.845 29.5003Z" fill="url(#paint3_linear)"/>
</g>
<g filter="url(#filter7_d)">
<path fill-rule="evenodd" clip-rule="evenodd" d="M14.8432 30.6251L12.5547 22.3027H17.1622L14.8432 30.6251ZM16.7671 22.6027H12.9483L14.8451 29.5005L16.7671 22.6027Z" fill="#E0E0E0"/>
</g>
<g filter="url(#filter8_d)">
<path d="M16.9189 20.2774L23.0139 23.7518L19.5997 17.5693L16.9189 20.2774Z" fill="url(#paint4_linear)"/>
</g>
<g filter="url(#filter9_d)">
<path fill-rule="evenodd" clip-rule="evenodd" d="M16.4307 20.3451L19.6686 17.0742L23.7924 24.5417L16.4307 20.3451ZM23.014 23.7527L19.5998 17.5702L16.919 20.2782L23.014 23.7527Z" fill="#E0E0E0"/>
</g>
<g filter="url(#filter10_d)">
<path d="M8.06717 13.4062L0.884766 15.45L8.06717 17.4683V13.4062Z" fill="url(#paint5_linear)"/>
</g>
<g filter="url(#filter11_d)">
<path fill-rule="evenodd" clip-rule="evenodd" d="M8.36713 13.0088V17.864L-0.217773 15.4517L8.36713 13.0088ZM0.884733 15.4499L8.06713 17.4681V13.4061L0.884733 15.4499Z" fill="#E0E0E0"/>
</g>
<g filter="url(#filter12_d)">
<path d="M12.822 10.5441L6.60059 7.01855L10.0906 13.3032L12.822 10.5441Z" fill="url(#paint6_linear)"/>
</g>
<g filter="url(#filter13_d)">
<path fill-rule="evenodd" clip-rule="evenodd" d="M13.3109 10.4772L10.0224 13.7993L5.82031 6.23242L13.3109 10.4772ZM6.60046 7.01934L10.0905 13.304L12.8218 10.5449L6.60046 7.01934Z" fill="#E0E0E0"/>
</g>
<g filter="url(#filter14_d)">
<path d="M14.8703 1.5L12.9482 8.42336H16.7671L14.8703 1.5Z" fill="url(#paint7_linear)"/>
</g>
<g filter="url(#filter15_d)">
<path fill-rule="evenodd" clip-rule="evenodd" d="M14.8723 0.37207L17.1604 8.72382H12.5537L14.8723 0.37207ZM12.9483 8.42382H16.7672L14.8704 1.50046L12.9483 8.42382Z" fill="#E0E0E0"/>
</g>
</g>
<defs>
<filter id="filter0_d" x="12.8174" y="6.9668" width="14.2972" height="14.3613" filterUnits="userSpaceOnUse" color-interpolation-filters="sRGB">
<feFlood flood-opacity="0" result="BackgroundImageFix"/>
<feColorMatrix in="SourceAlpha" type="matrix" values="0 0 0 0 0 0 0 0 0 0 0 0 0 0 0 0 0 0 127 0"/>
<feOffset dy="4"/>
<feGaussianBlur stdDeviation="2"/>
<feColorMatrix type="matrix" values="0 0 0 0 0 0 0 0 0 0 0 0 0 0 0 0 0 0 0.25 0"/>
<feBlend mode="normal" in2="BackgroundImageFix" result="effect1_dropShadow"/>
<feBlend mode="normal" in="SourceGraphic" in2="effect1_dropShadow" result="shape"/>
</filter>
<filter id="filter1_d" x="12.3281" y="6.17773" width="15.5689" height="15.6459" filterUnits="userSpaceOnUse" color-interpolation-filters="sRGB">
<feFlood flood-opacity="0" result="BackgroundImageFix"/>
<feColorMatrix in="SourceAlpha" type="matrix" values="0 0 0 0 0 0 0 0 0 0 0 0 0 0 0 0 0 0 127 0"/>
<feOffset dy="4"/>
<feGaussianBlur stdDeviation="2"/>
<feColorMatrix type="matrix" values="0 0 0 0 0 0 0 0 0 0 0 0 0 0 0 0 0 0 0.25 0"/>
<feBlend mode="normal" in2="BackgroundImageFix" result="effect1_dropShadow"/>
<feBlend mode="normal" in="SourceGraphic" in2="effect1_dropShadow" result="shape"/>
</filter>
<filter id="filter2_d" x="17.6729" y="13.4307" width="15.1065" height="12.011" filterUnits="userSpaceOnUse" color-interpolation-filters="sRGB">
<feFlood flood-opacity="0" result="BackgroundImageFix"/>
<feColorMatrix in="SourceAlpha" type="matrix" values="0 0 0 0 0 0 0 0 0 0 0 0 0 0 0 0 0 0 127 0"/>
<feOffset dy="4"/>
<feGaussianBlur stdDeviation="2"/>
<feColorMatrix type="matrix" values="0 0 0 0 0 0 0 0 0 0 0 0 0 0 0 0 0 0 0.25 0"/>
<feBlend mode="normal" in2="BackgroundImageFix" result="effect1_dropShadow"/>
<feBlend mode="normal" in="SourceGraphic" in2="effect1_dropShadow" result="shape"/>
</filter>
<filter id="filter3_d" x="17.373" y="13.0342" width="16.5111" height="12.8037" filterUnits="userSpaceOnUse" color-interpolation-filters="sRGB">
<feFlood flood-opacity="0" result="BackgroundImageFix"/>
<feColorMatrix in="SourceAlpha" type="matrix" values="0 0 0 0 0 0 0 0 0 0 0 0 0 0 0 0 0 0 127 0"/>
<feOffset dy="4"/>
<feGaussianBlur stdDeviation="2"/>
<feColorMatrix type="matrix" values="0 0 0 0 0 0 0 0 0 0 0 0 0 0 0 0 0 0 0.25 0"/>
<feBlend mode="normal" in2="BackgroundImageFix" result="effect1_dropShadow"/>
<feBlend mode="normal" in="SourceGraphic" in2="effect1_dropShadow" result="shape"/>
</filter>
<filter id="filter4_d" x="2.67578" y="17.5693" width="14.0949" height="14.1825" filterUnits="userSpaceOnUse" color-interpolation-filters="sRGB">
<feFlood flood-opacity="0" result="BackgroundImageFix"/>
<feColorMatrix in="SourceAlpha" type="matrix" values="0 0 0 0 0 0 0 0 0 0 0 0 0 0 0 0 0 0 127 0"/>
<feOffset dy="4"/>
<feGaussianBlur stdDeviation="2"/>
<feColorMatrix type="matrix" values="0 0 0 0 0 0 0 0 0 0 0 0 0 0 0 0 0 0 0.25 0"/>
<feBlend mode="normal" in2="BackgroundImageFix" result="effect1_dropShadow"/>
<feBlend mode="normal" in="SourceGraphic" in2="effect1_dropShadow" result="shape"/>
</filter>
<filter id="filter5_d" x="1.89746" y="17.0742" width="15.3618" height="15.4675" filterUnits="userSpaceOnUse" color-interpolation-filters="sRGB">
<feFlood flood-opacity="0" result="BackgroundImageFix"/>
<feColorMatrix in="SourceAlpha" type="matrix" values="0 0 0 0 0 0 0 0 0 0 0 0 0 0 0 0 0 0 127 0"/>
<feOffset dy="4"/>
<feGaussianBlur stdDeviation="2"/>
<feColorMatrix type="matrix" values="0 0 0 0 0 0 0 0 0 0 0 0 0 0 0 0 0 0 0.25 0"/>
<feBlend mode="normal" in2="BackgroundImageFix" result="effect1_dropShadow"/>
<feBlend mode="normal" in="SourceGraphic" in2="effect1_dropShadow" result="shape"/>
</filter>
<filter id="filter6_d" x="8.94824" y="22.6025" width="11.8188" height="14.8978" filterUnits="userSpaceOnUse" color-interpolation-filters="sRGB">
<feFlood flood-opacity="0" result="BackgroundImageFix"/>
<feColorMatrix in="SourceAlpha" type="matrix" values="0 0 0 0 0 0 0 0 0 0 0 0 0 0 0 0 0 0 127 0"/>
<feOffset dy="4"/>
<feGaussianBlur stdDeviation="2"/>
<feColorMatrix type="matrix" values="0 0 0 0 0 0 0 0 0 0 0 0 0 0 0 0 0 0 0.25 0"/>
<feBlend mode="normal" in2="BackgroundImageFix" result="effect1_dropShadow"/>
<feBlend mode="normal" in="SourceGraphic" in2="effect1_dropShadow" result="shape"/>
</filter>
<filter id="filter7_d" x="8.55469" y="22.3027" width="12.6075" height="16.3223" filterUnits="userSpaceOnUse" color-interpolation-filters="sRGB">
<feFlood flood-opacity="0" result="BackgroundImageFix"/>
<feColorMatrix in="SourceAlpha" type="matrix" values="0 0 0 0 0 0 0 0 0 0 0 0 0 0 0 0 0 0 127 0"/>
<feOffset dy="4"/>
<feGaussianBlur stdDeviation="2"/>
<feColorMatrix type="matrix" values="0 0 0 0 0 0 0 0 0 0 0 0 0 0 0 0 0 0 0.25 0"/>
<feBlend mode="normal" in2="BackgroundImageFix" result="effect1_dropShadow"/>
<feBlend mode="normal" in="SourceGraphic" in2="effect1_dropShadow" result="shape"/>
</filter>
<filter id="filter8_d" x="12.9189" y="17.5693" width="14.0949" height="14.1825" filterUnits="userSpaceOnUse" color-interpolation-filters="sRGB">
<feFlood flood-opacity="0" result="BackgroundImageFix"/>
<feColorMatrix in="SourceAlpha" type="matrix" values="0 0 0 0 0 0 0 0 0 0 0 0 0 0 0 0 0 0 127 0"/>
<feOffset dy="4"/>
<feGaussianBlur stdDeviation="2"/>
<feColorMatrix type="matrix" values="0 0 0 0 0 0 0 0 0 0 0 0 0 0 0 0 0 0 0.25 0"/>
<feBlend mode="normal" in2="BackgroundImageFix" result="effect1_dropShadow"/>
<feBlend mode="normal" in="SourceGraphic" in2="effect1_dropShadow" result="shape"/>
</filter>
<filter id="filter9_d" x="12.4307" y="17.0742" width="15.3618" height="15.4675" filterUnits="userSpaceOnUse" color-interpolation-filters="sRGB">
<feFlood flood-opacity="0" result="BackgroundImageFix"/>
<feColorMatrix in="SourceAlpha" type="matrix" values="0 0 0 0 0 0 0 0 0 0 0 0 0 0 0 0 0 0 127 0"/>
<feOffset dy="4"/>
<feGaussianBlur stdDeviation="2"/>
<feColorMatrix type="matrix" values="0 0 0 0 0 0 0 0 0 0 0 0 0 0 0 0 0 0 0.25 0"/>
<feBlend mode="normal" in2="BackgroundImageFix" result="effect1_dropShadow"/>
<feBlend mode="normal" in="SourceGraphic" in2="effect1_dropShadow" result="shape"/>
</filter>
<filter id="filter10_d" x="-3.11523" y="13.4062" width="15.1824" height="12.062" filterUnits="userSpaceOnUse" color-interpolation-filters="sRGB">
<feFlood flood-opacity="0" result="BackgroundImageFix"/>
<feColorMatrix in="SourceAlpha" type="matrix" values="0 0 0 0 0 0 0 0 0 0 0 0 0 0 0 0 0 0 127 0"/>
<feOffset dy="4"/>
<feGaussianBlur stdDeviation="2"/>
<feColorMatrix type="matrix" values="0 0 0 0 0 0 0 0 0 0 0 0 0 0 0 0 0 0 0.25 0"/>
<feBlend mode="normal" in2="BackgroundImageFix" result="effect1_dropShadow"/>
<feBlend mode="normal" in="SourceGraphic" in2="effect1_dropShadow" result="shape"/>
</filter>
<filter id="filter11_d" x="-4.21777" y="13.0088" width="16.5849" height="12.8552" filterUnits="userSpaceOnUse" color-interpolation-filters="sRGB">
<feFlood flood-opacity="0" result="BackgroundImageFix"/>
<feColorMatrix in="SourceAlpha" type="matrix" values="0 0 0 0 0 0 0 0 0 0 0 0 0 0 0 0 0 0 127 0"/>
<feOffset dy="4"/>
<feGaussianBlur stdDeviation="2"/>
<feColorMatrix type="matrix" values="0 0 0 0 0 0 0 0 0 0 0 0 0 0 0 0 0 0 0.25 0"/>
<feBlend mode="normal" in2="BackgroundImageFix" result="effect1_dropShadow"/>
<feBlend mode="normal" in="SourceGraphic" in2="effect1_dropShadow" result="shape"/>
</filter>
<filter id="filter12_d" x="2.60059" y="7.01855" width="14.2214" height="14.2847" filterUnits="userSpaceOnUse" color-interpolation-filters="sRGB">
<feFlood flood-opacity="0" result="BackgroundImageFix"/>
<feColorMatrix in="SourceAlpha" type="matrix" values="0 0 0 0 0 0 0 0 0 0 0 0 0 0 0 0 0 0 127 0"/>
<feOffset dy="4"/>
<feGaussianBlur stdDeviation="2"/>
<feColorMatrix type="matrix" values="0 0 0 0 0 0 0 0 0 0 0 0 0 0 0 0 0 0 0.25 0"/>
<feBlend mode="normal" in2="BackgroundImageFix" result="effect1_dropShadow"/>
<feBlend mode="normal" in="SourceGraphic" in2="effect1_dropShadow" result="shape"/>
</filter>
<filter id="filter13_d" x="1.82031" y="6.23242" width="15.4906" height="15.5668" filterUnits="userSpaceOnUse" color-interpolation-filters="sRGB">
<feFlood flood-opacity="0" result="BackgroundImageFix"/>
<feColorMatrix in="SourceAlpha" type="matrix" values="0 0 0 0 0 0 0 0 0 0 0 0 0 0 0 0 0 0 127 0"/>
<feOffset dy="4"/>
<feGaussianBlur stdDeviation="2"/>
<feColorMatrix type="matrix" values="0 0 0 0 0 0 0 0 0 0 0 0 0 0 0 0 0 0 0.25 0"/>
<feBlend mode="normal" in2="BackgroundImageFix" result="effect1_dropShadow"/>
<feBlend mode="normal" in="SourceGraphic" in2="effect1_dropShadow" result="shape"/>
</filter>
<filter id="filter14_d" x="8.94824" y="1.5" width="11.8188" height="14.9234" filterUnits="userSpaceOnUse" color-interpolation-filters="sRGB">
<feFlood flood-opacity="0" result="BackgroundImageFix"/>
<feColorMatrix in="SourceAlpha" type="matrix" values="0 0 0 0 0 0 0 0 0 0 0 0 0 0 0 0 0 0 127 0"/>
<feOffset dy="4"/>
<feGaussianBlur stdDeviation="2"/>
<feColorMatrix type="matrix" values="0 0 0 0 0 0 0 0 0 0 0 0 0 0 0 0 0 0 0.25 0"/>
<feBlend mode="normal" in2="BackgroundImageFix" result="effect1_dropShadow"/>
<feBlend mode="normal" in="SourceGraphic" in2="effect1_dropShadow" result="shape"/>
</filter>
<filter id="filter15_d" x="8.55371" y="0.37207" width="12.6067" height="16.3517" filterUnits="userSpaceOnUse" color-interpolation-filters="sRGB">
<feFlood flood-opacity="0" result="BackgroundImageFix"/>
<feColorMatrix in="SourceAlpha" type="matrix" values="0 0 0 0 0 0 0 0 0 0 0 0 0 0 0 0 0 0 127 0"/>
<feOffset dy="4"/>
<feGaussianBlur stdDeviation="2"/>
<feColorMatrix type="matrix" values="0 0 0 0 0 0 0 0 0 0 0 0 0 0 0 0 0 0 0.25 0"/>
<feBlend mode="normal" in2="BackgroundImageFix" result="effect1_dropShadow"/>
<feBlend mode="normal" in="SourceGraphic" in2="effect1_dropShadow" result="shape"/>
</filter>
<linearGradient id="paint0_linear" x1="3.93403" y1="-0.321381" x2="33.8606" y2="17.3188" gradientUnits="userSpaceOnUse">
<stop offset="0.3351" stop-color="#00ADEF"/>
<stop offset="0.8621" stop-color="#091079"/>
</linearGradient>
<linearGradient id="paint1_linear" x1="2.0651" y1="2.51495" x2="32.6355" y2="20.5346" gradientUnits="userSpaceOnUse">
<stop offset="0.3351" stop-color="#00ADEF"/>
<stop offset="0.8621" stop-color="#091079"/>
</linearGradient>
<linearGradient id="paint2_linear" x1="-3.78179" y1="13.3452" x2="25.2331" y2="30.448" gradientUnits="userSpaceOnUse">
<stop offset="0.3351" stop-color="#00ADEF"/>
<stop offset="0.8621" stop-color="#091079"/>
</linearGradient>
<linearGradient id="paint3_linear" x1="-4.08316" y1="14.076" x2="25.5703" y2="31.5552" gradientUnits="userSpaceOnUse">
<stop offset="0.3351" stop-color="#00ADEF"/>
<stop offset="0.8621" stop-color="#091079"/>
</linearGradient>
<linearGradient id="paint4_linear" x1="0.185363" y1="8.05677" x2="29.2003" y2="25.1596" gradientUnits="userSpaceOnUse">
<stop offset="0.3351" stop-color="#00ADEF"/>
<stop offset="0.8621" stop-color="#091079"/>
</linearGradient>
<linearGradient id="paint5_linear" x1="-3.07944" y1="9.88152" x2="27.792" y2="28.0786" gradientUnits="userSpaceOnUse">
<stop offset="0.3351" stop-color="#00ADEF"/>
<stop offset="0.8621" stop-color="#091079"/>
</linearGradient>
<linearGradient id="paint6_linear" x1="0.291024" y1="5.20223" x2="29.8196" y2="22.6078" gradientUnits="userSpaceOnUse">
<stop offset="0.3351" stop-color="#00ADEF"/>
<stop offset="0.8621" stop-color="#091079"/>
</linearGradient>
<linearGradient id="paint7_linear" x1="3.98875" y1="-0.998566" x2="33.715" y2="16.5235" gradientUnits="userSpaceOnUse">
<stop offset="0.3351" stop-color="#00ADEF"/>
<stop offset="0.8621" stop-color="#091079"/>
</linearGradient>
<clipPath id="clip0">
<rect width="88" height="32" fill="white"/>
</clipPath>
</defs>
</svg>
